0
SECTION
2
HEADER
9
$INSUNITS
70
4
9
$ACADVER
1
AC1014
9
$HANDSEED
5
FFFF
0
ENDSEC
0
SECTION
2
TABLES
0
TABLE
2
VPORT
5
8
100
AcDbSymbolTable
0
ENDTAB
0
TABLE
2
LTYPE
5
5
100
AcDbSymbolTable
0
LTYPE
5
14
100
AcDbSymbolTableRecord
100
AcDbLinetypeTableRecord
2
BYBLOCK
70
0
0
LTYPE
5
15
100
AcDbSymbolTableRecord
100
AcDbLinetypeTableRecord
2
BYLAYER
70
0
0
ENDTAB
0
TABLE
2
LAYER
5
2
100
AcDbSymbolTable
70
2
0
LAYER
5
50
100
AcDbSymbolTableRecord
100
AcDbLayerTableRecord
2
0
70
0
6
CONTINUOUS
0
ENDTAB
0
TABLE
2
STYLE
5
3
100
AcDbSymbolTable
70
1
0
STYLE
5
11
100
AcDbSymbolTableRecord
100
AcDbTextStyleTableRecord
2
STANDARD
70
0
0
ENDTAB
0
TABLE
2
VIEW
5
6
100
AcDbSymbolTable
70
0
0
ENDTAB
0
TABLE
2
UCS
5
7
100
AcDbSymbolTable
70
0
0
ENDTAB
0
TABLE
2
APPID
5
9
100
AcDbSymbolTable
70
2
0
APPID
5
12
100
AcDbSymbolTableRecord
100
AcDbRegAppTableRecord
2
ACAD
70
0
0
ENDTAB
0
TABLE
2
DIMSTYLE
5
A
100
AcDbSymbolTable
70
1
0
ENDTAB
0
TABLE
2
BLOCK_RECORD
5
1
100
AcDbSymbolTable
70
1
0
BLOCK_RECORD
5
1F
100
AcDbSymbolTableRecord
100
AcDbBlockTableRecord
2
*MODEL_SPACE
0
BLOCK_RECORD
5
1B
100
AcDbSymbolTableRecord
100
AcDbBlockTableRecord
2
*PAPER_SPACE
0
ENDTAB
0
ENDSEC
0
SECTION
2
BLOCKS
0
BLOCK
5
20
100
AcDbEntity
100
AcDbBlockBegin
2
*MODEL_SPACE
0
ENDBLK
5
21
100
AcDbEntity
100
AcDbBlockEnd
0
BLOCK
5
1C
100
AcDbEntity
100
AcDbBlockBegin
2
*PAPER_SPACE
0
ENDBLK
5
1D
100
AcDbEntity
100
AcDbBlockEnd
0
ENDSEC
0
SECTION
2
ENTITIES
0
LWPOLYLINE
5
100
100
AcDbEntity
8
0
100
AcDbPolyline
90
7
70
1
43
0.0
10
17.500000260770321
20
-13.000000149011612
10
13.333100099939617
20
-9.1242354319108703
42
-4.3593214661865352
10
15.050737842933295
20
-9.4228827676407736
10
17.500000260770321
20
-11.701018670969239
10
17.500000260770321
20
-10.000000149011612
10
20.000000298023224
20
-10.000000149011612
10
20.000000298023224
20
-13.000000149011612
0
LWPOLYLINE
5
101
100
AcDbEntity
8
0
100
AcDbPolyline
90
24
70
1
43
0.0
10
36.427958812296779
20
-12.691673131038289
10
34
20
-14.5
10
22
20
-14.5
10
19.976570618688697
20
-16.009117212384069
42
-0.56677654300967906
10
18.383212227348793
20
-17.444975618928506
10
16.023930262328886
20
-19.204578921699298
42
-7.4300976376312935
10
15.150246217152672
20
-18.608693898468907
10
17.613874596980075
20
-16.771266792163878
42
-0.80877031193282678
10
19.573582398159893
20
-15.309674506651447
10
22
20
-13.499999999999998
10
34
20
-13.499999999999998
10
36.023787139867821
20
-11.992697386979039
42
-0.099515783563431146
10
36.025255117962516
20
-11.500000052154054
10
27
20
-11.500000052154062
10
27
20
-9.0000001341104507
10
17.5
20
-9
10
17.5
20
-5.9999999999999982
10
40.177537668137035
20
-5.9999999999999964
42
-6.668337087805015
10
39.563808595572169
20
-7.0000001043081275
10
20
20
-7.0000001043081284
10
20
20
-8.0000000521540642
10
29.5
20
-8.0000000521540642
10
29.499999999999996
20
-10.500000052154055
10
37.249638911173072
20
-10.500000052154075
42
-1.4433240649587376
0
CIRCLE
5
102
100
AcDbEntity
8
0
100
AcDbCircle
10
41.500266967550886
20
-20.500129061271775
30
0
40
2
210
0
220
0
230
1
0
LWPOLYLINE
5
103
100
AcDbEntity
8
0
100
AcDbPolyline
90
4
70
1
43
0.0
10
46.000000000000007
20
-2.9999999999999982
10
10
20
-2.9999999999999982
10
10
20
-25
10
46.000000000000007
20
-25
0
ENDSEC
0
SECTION
2
OBJECTS
0
DICTIONARY
5
C
100
AcDbDictionary
3
ACAD_GROUP
350
D
3
ACAD_MLINESTYLE
350
17
0
DICTIONARY
5
D
100
AcDbDictionary
0
DICTIONARY
5
1A
330
C
100
AcDbDictionary
0
DICTIONARY
5
17
100
AcDbDictionary
0
ENDSEC
0
EOF
