999
"DXF R12 Output" (www.mydxf.blogspot.com)
 0 
SECTION
 2 
HEADER
 9 
$ACADVER
 1 
AC1009
 9 
$EXTMIN
 10 
 0 
 20 
 0 
 9 
$EXTMAX
 10 
 8.5 
 20 
 11 
 0 
ENDSEC
 0 
SECTION
 2 
ENTITIES
0
LINE
8
Layer 1
10
3.000000
20
-3.000000
11
-3.000000
21
3.000000
0
LINE
8
Layer 1
10
0.000000
20
-5.000000
11
0.000000
21
5.000000
0
LINE
8
Layer 1
10
8.000000
20
4.000000
11
4.000000
21
8.000000
0
LINE
8
Layer 1
10
6.000000
20
2.000000
11
2.000000
21
6.000000
0
LINE
8
Layer 1
10
4.000000
20
0.000000
11
0.000000
21
4.000000
0
LINE
8
0
10
136.731000
20
50.374400
11
136.469340
21
48.402110
0
LINE
8
0
10
136.469340
20
48.402110
11
135.718279
21
46.594875
0
LINE
8
0
10
135.718279
20
46.594875
11
134.528698
21
45.040820
0
LINE
8
0
10
134.528698
20
45.040820
11
132.951475
21
43.828071
0
LINE
8
0
10
132.951475
20
43.828071
11
131.112592
21
43.068530
0
LINE
8
0
10
131.112592
20
43.068530
11
129.171950
21
42.815350
0
LINE
8
0
10
129.171950
20
42.815350
11
127.231308
21
43.068530
0
LINE
8
0
10
127.231308
20
43.068530
11
125.392425
21
43.828071
0
LINE
8
0
10
125.392425
20
43.828071
11
123.815202
21
45.040820
0
LINE
8
0
10
123.815202
20
45.040820
11
122.625621
21
46.594875
0
LINE
8
0
10
122.625621
20
46.594875
11
121.874560
21
48.402110
0
LINE
8
0
10
121.874560
20
48.402110
11
121.612900
21
50.374400
0
LINE
8
0
10
121.612900
20
50.374400
11
121.874560
21
52.346690
0
LINE
8
0
10
121.874560
20
52.346690
11
122.625621
21
54.153925
0
LINE
8
0
10
122.625621
20
54.153925
11
123.815202
21
55.707980
0
LINE
8
0
10
123.815202
20
55.707980
11
125.392425
21
56.920729
0
LINE
8
0
10
125.392425
20
56.920729
11
127.231308
21
57.680270
0
LINE
8
0
10
127.231308
20
57.680270
11
129.171950
21
57.933450
0
LINE
8
0
10
129.171950
20
57.933450
11
131.112592
21
57.680270
0
LINE
8
0
10
131.112592
20
57.680270
11
132.951475
21
56.920729
0
LINE
8
0
10
132.951475
20
56.920729
11
134.528698
21
55.707980
0
LINE
8
0
10
134.528698
20
55.707980
11
135.718279
21
54.153925
0
LINE
8
0
10
135.718279
20
54.153925
11
136.469340
21
52.346690
0
LINE
8
0
10
136.469340
20
52.346690
11
136.731000
21
50.374400
0
LINE
8
0
10
136.731000
20
50.374400
11
136.731000
21
50.374400
0
LINE
8
0
10
136.731000
20
99.508200
11
136.469340
21
97.535910
0
LINE
8
0
10
136.469340
20
97.535910
11
135.718279
21
95.728675
0
LINE
8
0
10
135.718279
20
95.728675
11
134.528698
21
94.174620
0
LINE
8
0
10
134.528698
20
94.174620
11
132.951475
21
92.961871
0
LINE
8
0
10
132.951475
20
92.961871
11
131.112592
21
92.202330
0
LINE
8
0
10
131.112592
20
92.202330
11
129.171950
21
91.949150
0
LINE
8
0
10
129.171950
20
91.949150
11
127.231308
21
92.202330
0
LINE
8
0
10
127.231308
20
92.202330
11
125.392425
21
92.961871
0
LINE
8
0
10
125.392425
20
92.961871
11
123.815202
21
94.174620
0
LINE
8
0
10
123.815202
20
94.174620
11
122.625621
21
95.728675
0
LINE
8
0
10
122.625621
20
95.728675
11
121.874560
21
97.535910
0
LINE
8
0
10
121.874560
20
97.535910
11
121.612900
21
99.508200
0
LINE
8
0
10
121.612900
20
99.508200
11
121.874560
21
101.480490
0
LINE
8
0
10
121.874560
20
101.480490
11
122.625621
21
103.287725
0
LINE
8
0
10
122.625621
20
103.287725
11
123.815202
21
104.841780
0
LINE
8
0
10
123.815202
20
104.841780
11
125.392425
21
106.054529
0
LINE
8
0
10
125.392425
20
106.054529
11
127.231308
21
106.814070
0
LINE
8
0
10
127.231308
20
106.814070
11
129.171950
21
107.067250
0
LINE
8
0
10
129.171950
20
107.067250
11
131.112592
21
106.814070
0
LINE
8
0
10
131.112592
20
106.814070
11
132.951475
21
106.054529
0
LINE
8
0
10
132.951475
20
106.054529
11
134.528698
21
104.841780
0
LINE
8
0
10
134.528698
20
104.841780
11
135.718279
21
103.287725
0
LINE
8
0
10
135.718279
20
103.287725
11
136.469340
21
101.480490
0
LINE
8
0
10
136.469340
20
101.480490
11
136.731000
21
99.508200
0
LINE
8
0
10
136.731000
20
99.508200
11
136.731000
21
99.508200
0
LINE
8
0
10
34.683800
20
50.374400
11
34.424804
21
48.399657
0
LINE
8
0
10
34.424804
20
48.399657
11
33.675183
21
46.589676
0
LINE
8
0
10
33.675183
20
46.589676
11
32.485877
21
45.032910
0
LINE
8
0
10
32.485877
20
45.032910
11
30.907829
21
43.817817
0
LINE
8
0
10
30.907829
20
43.817817
11
29.067327
21
43.056737
0
LINE
8
0
10
29.067327
20
43.056737
11
27.124750
21
42.803044
0
LINE
8
0
10
27.124750
20
42.803044
11
25.182173
21
43.056737
0
LINE
8
0
10
25.182173
20
43.056737
11
23.341671
21
43.817817
0
LINE
8
0
10
23.341671
20
43.817817
11
21.763623
21
45.032910
0
LINE
8
0
10
21.763623
20
45.032910
11
20.574317
21
46.589676
0
LINE
8
0
10
20.574317
20
46.589676
11
19.824696
21
48.399657
0
LINE
8
0
10
19.824696
20
48.399657
11
19.565700
21
50.374400
0
LINE
8
0
10
19.565700
20
50.374400
11
19.824696
21
52.349143
0
LINE
8
0
10
19.824696
20
52.349143
11
20.574317
21
54.159124
0
LINE
8
0
10
20.574317
20
54.159124
11
21.763623
21
55.715890
0
LINE
8
0
10
21.763623
20
55.715890
11
23.341671
21
56.930983
0
LINE
8
0
10
23.341671
20
56.930983
11
25.182173
21
57.692063
0
LINE
8
0
10
25.182173
20
57.692063
11
27.124750
21
57.945756
0
LINE
8
0
10
27.124750
20
57.945756
11
29.067327
21
57.692063
0
LINE
8
0
10
29.067327
20
57.692063
11
30.907829
21
56.930983
0
LINE
8
0
10
30.907829
20
56.930983
11
32.485877
21
55.715890
0
LINE
8
0
10
32.485877
20
55.715890
11
33.675183
21
54.159124
0
LINE
8
0
10
33.675183
20
54.159124
11
34.424804
21
52.349143
0
LINE
8
0
10
34.424804
20
52.349143
11
34.683800
21
50.374400
0
LINE
8
0
10
34.683800
20
50.374400
11
34.683800
21
50.374400
0
LINE
8
0
10
34.683800
20
99.508200
11
34.424804
21
97.533457
0
LINE
8
0
10
34.424804
20
97.533457
11
33.675183
21
95.723476
0
LINE
8
0
10
33.675183
20
95.723476
11
32.485877
21
94.166710
0
LINE
8
0
10
32.485877
20
94.166710
11
30.907829
21
92.951617
0
LINE
8
0
10
30.907829
20
92.951617
11
29.067327
21
92.190537
0
LINE
8
0
10
29.067327
20
92.190537
11
27.124750
21
91.936844
0
LINE
8
0
10
27.124750
20
91.936844
11
25.182173
21
92.190537
0
LINE
8
0
10
25.182173
20
92.190537
11
23.341671
21
92.951617
0
LINE
8
0
10
23.341671
20
92.951617
11
21.763623
21
94.166710
0
LINE
8
0
10
21.763623
20
94.166710
11
20.574317
21
95.723476
0
LINE
8
0
10
20.574317
20
95.723476
11
19.824696
21
97.533457
0
LINE
8
0
10
19.824696
20
97.533457
11
19.565700
21
99.508200
0
LINE
8
0
10
19.565700
20
99.508200
11
19.824696
21
101.482943
0
LINE
8
0
10
19.824696
20
101.482943
11
20.574317
21
103.292924
0
LINE
8
0
10
20.574317
20
103.292924
11
21.763623
21
104.849690
0
LINE
8
0
10
21.763623
20
104.849690
11
23.341671
21
106.064783
0
LINE
8
0
10
23.341671
20
106.064783
11
25.182173
21
106.825863
0
LINE
8
0
10
25.182173
20
106.825863
11
27.124750
21
107.079556
0
LINE
8
0
10
27.124750
20
107.079556
11
29.067327
21
106.825863
0
LINE
8
0
10
29.067327
20
106.825863
11
30.907829
21
106.064783
0
LINE
8
0
10
30.907829
20
106.064783
11
32.485877
21
104.849690
0
LINE
8
0
10
32.485877
20
104.849690
11
33.675183
21
103.292924
0
LINE
8
0
10
33.675183
20
103.292924
11
34.424804
21
101.482943
0
LINE
8
0
10
34.424804
20
101.482943
11
34.683800
21
99.508200
0
LINE
8
0
10
34.683800
20
99.508200
11
34.683800
21
99.508200
0
LINE
8
0
10
146.179000
20
33.366000
11
10.115900
21
33.366000
0
LINE
8
0
10
10.115900
20
33.366000
11
10.115900
21
116.516000
0
LINE
8
0
10
10.115900
20
116.516000
11
146.179000
21
116.516000
0
LINE
8
0
10
146.179000
20
116.516000
11
146.179000
21
33.366000
0
LINE
8
0
10
272.794000
20
50.374400
11
272.532340
21
48.402110
0
LINE
8
0
10
272.532340
20
48.402110
11
271.781279
21
46.594875
0
LINE
8
0
10
271.781279
20
46.594875
11
270.591698
21
45.040820
0
LINE
8
0
10
270.591698
20
45.040820
11
269.014475
21
43.828071
0
LINE
8
0
10
269.014475
20
43.828071
11
267.175592
21
43.068530
0
LINE
8
0
10
267.175592
20
43.068530
11
265.234950
21
42.815350
0
LINE
8
0
10
265.234950
20
42.815350
11
263.294308
21
43.068530
0
LINE
8
0
10
263.294308
20
43.068530
11
261.455425
21
43.828071
0
LINE
8
0
10
261.455425
20
43.828071
11
259.878202
21
45.040820
0
LINE
8
0
10
259.878202
20
45.040820
11
258.688621
21
46.594875
0
LINE
8
0
10
258.688621
20
46.594875
11
257.937560
21
48.402110
0
LINE
8
0
10
257.937560
20
48.402110
11
257.675900
21
50.374400
0
LINE
8
0
10
257.675900
20
50.374400
11
257.937560
21
52.346690
0
LINE
8
0
10
257.937560
20
52.346690
11
258.688621
21
54.153925
0
LINE
8
0
10
258.688621
20
54.153925
11
259.878202
21
55.707980
0
LINE
8
0
10
259.878202
20
55.707980
11
261.455425
21
56.920729
0
LINE
8
0
10
261.455425
20
56.920729
11
263.294308
21
57.680270
0
LINE
8
0
10
263.294308
20
57.680270
11
265.234950
21
57.933450
0
LINE
8
0
10
265.234950
20
57.933450
11
267.175592
21
57.680270
0
LINE
8
0
10
267.175592
20
57.680270
11
269.014475
21
56.920729
0
LINE
8
0
10
269.014475
20
56.920729
11
270.591698
21
55.707980
0
LINE
8
0
10
270.591698
20
55.707980
11
271.781279
21
54.153925
0
LINE
8
0
10
271.781279
20
54.153925
11
272.532340
21
52.346690
0
LINE
8
0
10
272.532340
20
52.346690
11
272.794000
21
50.374400
0
LINE
8
0
10
272.794000
20
50.374400
11
272.794000
21
50.374400
0
LINE
8
0
10
272.794000
20
99.508200
11
272.532340
21
97.535910
0
LINE
8
0
10
272.532340
20
97.535910
11
271.781279
21
95.728675
0
LINE
8
0
10
271.781279
20
95.728675
11
270.591698
21
94.174620
0
LINE
8
0
10
270.591698
20
94.174620
11
269.014475
21
92.961871
0
LINE
8
0
10
269.014475
20
92.961871
11
267.175592
21
92.202330
0
LINE
8
0
10
267.175592
20
92.202330
11
265.234950
21
91.949150
0
LINE
8
0
10
265.234950
20
91.949150
11
263.294308
21
92.202330
0
LINE
8
0
10
263.294308
20
92.202330
11
261.455425
21
92.961871
0
LINE
8
0
10
261.455425
20
92.961871
11
259.878202
21
94.174620
0
LINE
8
0
10
259.878202
20
94.174620
11
258.688621
21
95.728675
0
LINE
8
0
10
258.688621
20
95.728675
11
257.937560
21
97.535910
0
LINE
8
0
10
257.937560
20
97.535910
11
257.675900
21
99.508200
0
LINE
8
0
10
257.675900
20
99.508200
11
257.937560
21
101.480490
0
LINE
8
0
10
257.937560
20
101.480490
11
258.688621
21
103.287725
0
LINE
8
0
10
258.688621
20
103.287725
11
259.878202
21
104.841780
0
LINE
8
0
10
259.878202
20
104.841780
11
261.455425
21
106.054529
0
LINE
8
0
10
261.455425
20
106.054529
11
263.294308
21
106.814070
0
LINE
8
0
10
263.294308
20
106.814070
11
265.234950
21
107.067250
0
LINE
8
0
10
265.234950
20
107.067250
11
267.175592
21
106.814070
0
LINE
8
0
10
267.175592
20
106.814070
11
269.014475
21
106.054529
0
LINE
8
0
10
269.014475
20
106.054529
11
270.591698
21
104.841780
0
LINE
8
0
10
270.591698
20
104.841780
11
271.781279
21
103.287725
0
LINE
8
0
10
271.781279
20
103.287725
11
272.532340
21
101.480490
0
LINE
8
0
10
272.532340
20
101.480490
11
272.794000
21
99.508200
0
LINE
8
0
10
272.794000
20
99.508200
11
272.794000
21
99.508200
0
LINE
8
0
10
170.747000
20
50.374400
11
170.488004
21
48.399657
0
LINE
8
0
10
170.488004
20
48.399657
11
169.738383
21
46.589676
0
LINE
8
0
10
169.738383
20
46.589676
11
168.549077
21
45.032910
0
LINE
8
0
10
168.549077
20
45.032910
11
166.971029
21
43.817817
0
LINE
8
0
10
166.971029
20
43.817817
11
165.130527
21
43.056737
0
LINE
8
0
10
165.130527
20
43.056737
11
163.187950
21
42.803044
0
LINE
8
0
10
163.187950
20
42.803044
11
161.245373
21
43.056737
0
LINE
8
0
10
161.245373
20
43.056737
11
159.404871
21
43.817817
0
LINE
8
0
10
159.404871
20
43.817817
11
157.826823
21
45.032910
0
LINE
8
0
10
157.826823
20
45.032910
11
156.637517
21
46.589676
0
LINE
8
0
10
156.637517
20
46.589676
11
155.887896
21
48.399657
0
LINE
8
0
10
155.887896
20
48.399657
11
155.628900
21
50.374400
0
LINE
8
0
10
155.628900
20
50.374400
11
155.887896
21
52.349143
0
LINE
8
0
10
155.887896
20
52.349143
11
156.637517
21
54.159124
0
LINE
8
0
10
156.637517
20
54.159124
11
157.826823
21
55.715890
0
LINE
8
0
10
157.826823
20
55.715890
11
159.404871
21
56.930983
0
LINE
8
0
10
159.404871
20
56.930983
11
161.245373
21
57.692063
0
LINE
8
0
10
161.245373
20
57.692063
11
163.187950
21
57.945756
0
LINE
8
0
10
163.187950
20
57.945756
11
165.130527
21
57.692063
0
LINE
8
0
10
165.130527
20
57.692063
11
166.971029
21
56.930983
0
LINE
8
0
10
166.971029
20
56.930983
11
168.549077
21
55.715890
0
LINE
8
0
10
168.549077
20
55.715890
11
169.738383
21
54.159124
0
LINE
8
0
10
169.738383
20
54.159124
11
170.488004
21
52.349143
0
LINE
8
0
10
170.488004
20
52.349143
11
170.747000
21
50.374400
0
LINE
8
0
10
170.747000
20
50.374400
11
170.747000
21
50.374400
0
LINE
8
0
10
170.747000
20
99.508200
11
170.488004
21
97.533457
0
LINE
8
0
10
170.488004
20
97.533457
11
169.738383
21
95.723476
0
LINE
8
0
10
169.738383
20
95.723476
11
168.549077
21
94.166710
0
LINE
8
0
10
168.549077
20
94.166710
11
166.971029
21
92.951617
0
LINE
8
0
10
166.971029
20
92.951617
11
165.130527
21
92.190537
0
LINE
8
0
10
165.130527
20
92.190537
11
163.187950
21
91.936844
0
LINE
8
0
10
163.187950
20
91.936844
11
161.245373
21
92.190537
0
LINE
8
0
10
161.245373
20
92.190537
11
159.404871
21
92.951617
0
LINE
8
0
10
159.404871
20
92.951617
11
157.826823
21
94.166710
0
LINE
8
0
10
157.826823
20
94.166710
11
156.637517
21
95.723476
0
LINE
8
0
10
156.637517
20
95.723476
11
155.887896
21
97.533457
0
LINE
8
0
10
155.887896
20
97.533457
11
155.628900
21
99.508200
0
LINE
8
0
10
155.628900
20
99.508200
11
155.887896
21
101.482943
0
LINE
8
0
10
155.887896
20
101.482943
11
156.637517
21
103.292924
0
LINE
8
0
10
156.637517
20
103.292924
11
157.826823
21
104.849690
0
LINE
8
0
10
157.826823
20
104.849690
11
159.404871
21
106.064783
0
LINE
8
0
10
159.404871
20
106.064783
11
161.245373
21
106.825863
0
LINE
8
0
10
161.245373
20
106.825863
11
163.187950
21
107.079556
0
LINE
8
0
10
163.187950
20
107.079556
11
165.130527
21
106.825863
0
LINE
8
0
10
165.130527
20
106.825863
11
166.971029
21
106.064783
0
LINE
8
0
10
166.971029
20
106.064783
11
168.549077
21
104.849690
0
LINE
8
0
10
168.549077
20
104.849690
11
169.738383
21
103.292924
0
LINE
8
0
10
169.738383
20
103.292924
11
170.488004
21
101.482943
0
LINE
8
0
10
170.488004
20
101.482943
11
170.747000
21
99.508200
0
LINE
8
0
10
170.747000
20
99.508200
11
170.747000
21
99.508200
0
LINE
8
0
10
282.242000
20
33.366000
11
146.179000
21
33.366000
0
LINE
8
0
10
146.179000
20
33.366000
11
146.179000
21
116.515600
0
LINE
8
0
10
146.179000
20
116.515600
11
282.242000
21
116.515600
0
LINE
8
0
10
282.242000
20
116.515600
11
282.242000
21
33.366000
0
LINE
8
0
10
408.857000
20
50.374400
11
408.595340
21
48.402110
0
LINE
8
0
10
408.595340
20
48.402110
11
407.844279
21
46.594875
0
LINE
8
0
10
407.844279
20
46.594875
11
406.654698
21
45.040820
0
LINE
8
0
10
406.654698
20
45.040820
11
405.077475
21
43.828071
0
LINE
8
0
10
405.077475
20
43.828071
11
403.238592
21
43.068530
0
LINE
8
0
10
403.238592
20
43.068530
11
401.297950
21
42.815350
0
LINE
8
0
10
401.297950
20
42.815350
11
399.357308
21
43.068530
0
LINE
8
0
10
399.357308
20
43.068530
11
397.518425
21
43.828071
0
LINE
8
0
10
397.518425
20
43.828071
11
395.941202
21
45.040820
0
LINE
8
0
10
395.941202
20
45.040820
11
394.751621
21
46.594875
0
LINE
8
0
10
394.751621
20
46.594875
11
394.000560
21
48.402110
0
LINE
8
0
10
394.000560
20
48.402110
11
393.738900
21
50.374400
0
LINE
8
0
10
393.738900
20
50.374400
11
394.000560
21
52.346690
0
LINE
8
0
10
394.000560
20
52.346690
11
394.751621
21
54.153925
0
LINE
8
0
10
394.751621
20
54.153925
11
395.941202
21
55.707980
0
LINE
8
0
10
395.941202
20
55.707980
11
397.518425
21
56.920729
0
LINE
8
0
10
397.518425
20
56.920729
11
399.357308
21
57.680270
0
LINE
8
0
10
399.357308
20
57.680270
11
401.297950
21
57.933450
0
LINE
8
0
10
401.297950
20
57.933450
11
403.238592
21
57.680270
0
LINE
8
0
10
403.238592
20
57.680270
11
405.077475
21
56.920729
0
LINE
8
0
10
405.077475
20
56.920729
11
406.654698
21
55.707980
0
LINE
8
0
10
406.654698
20
55.707980
11
407.844279
21
54.153925
0
LINE
8
0
10
407.844279
20
54.153925
11
408.595340
21
52.346690
0
LINE
8
0
10
408.595340
20
52.346690
11
408.857000
21
50.374400
0
LINE
8
0
10
408.857000
20
50.374400
11
408.857000
21
50.374400
0
LINE
8
0
10
408.857000
20
99.508200
11
408.595340
21
97.535910
0
LINE
8
0
10
408.595340
20
97.535910
11
407.844279
21
95.728675
0
LINE
8
0
10
407.844279
20
95.728675
11
406.654698
21
94.174620
0
LINE
8
0
10
406.654698
20
94.174620
11
405.077475
21
92.961871
0
LINE
8
0
10
405.077475
20
92.961871
11
403.238592
21
92.202330
0
LINE
8
0
10
403.238592
20
92.202330
11
401.297950
21
91.949150
0
LINE
8
0
10
401.297950
20
91.949150
11
399.357308
21
92.202330
0
LINE
8
0
10
399.357308
20
92.202330
11
397.518425
21
92.961871
0
LINE
8
0
10
397.518425
20
92.961871
11
395.941202
21
94.174620
0
LINE
8
0
10
395.941202
20
94.174620
11
394.751621
21
95.728675
0
LINE
8
0
10
394.751621
20
95.728675
11
394.000560
21
97.535910
0
LINE
8
0
10
394.000560
20
97.535910
11
393.738900
21
99.508200
0
LINE
8
0
10
393.738900
20
99.508200
11
394.000560
21
101.480490
0
LINE
8
0
10
394.000560
20
101.480490
11
394.751621
21
103.287725
0
LINE
8
0
10
394.751621
20
103.287725
11
395.941202
21
104.841780
0
LINE
8
0
10
395.941202
20
104.841780
11
397.518425
21
106.054529
0
LINE
8
0
10
397.518425
20
106.054529
11
399.357308
21
106.814070
0
LINE
8
0
10
399.357308
20
106.814070
11
401.297950
21
107.067250
0
LINE
8
0
10
401.297950
20
107.067250
11
403.238592
21
106.814070
0
LINE
8
0
10
403.238592
20
106.814070
11
405.077475
21
106.054529
0
LINE
8
0
10
405.077475
20
106.054529
11
406.654698
21
104.841780
0
LINE
8
0
10
406.654698
20
104.841780
11
407.844279
21
103.287725
0
LINE
8
0
10
407.844279
20
103.287725
11
408.595340
21
101.480490
0
LINE
8
0
10
408.595340
20
101.480490
11
408.857000
21
99.508200
0
LINE
8
0
10
408.857000
20
99.508200
11
408.857000
21
99.508200
0
LINE
8
0
10
306.810000
20
50.374400
11
306.551004
21
48.399657
0
LINE
8
0
10
306.551004
20
48.399657
11
305.801383
21
46.589676
0
LINE
8
0
10
305.801383
20
46.589676
11
304.612077
21
45.032910
0
LINE
8
0
10
304.612077
20
45.032910
11
303.034029
21
43.817817
0
LINE
8
0
10
303.034029
20
43.817817
11
301.193527
21
43.056737
0
LINE
8
0
10
301.193527
20
43.056737
11
299.250950
21
42.803044
0
LINE
8
0
10
299.250950
20
42.803044
11
297.308373
21
43.056737
0
LINE
8
0
10
297.308373
20
43.056737
11
295.467871
21
43.817817
0
LINE
8
0
10
295.467871
20
43.817817
11
293.889823
21
45.032910
0
LINE
8
0
10
293.889823
20
45.032910
11
292.700517
21
46.589676
0
LINE
8
0
10
292.700517
20
46.589676
11
291.950896
21
48.399657
0
LINE
8
0
10
291.950896
20
48.399657
11
291.691900
21
50.374400
0
LINE
8
0
10
291.691900
20
50.374400
11
291.950896
21
52.349143
0
LINE
8
0
10
291.950896
20
52.349143
11
292.700517
21
54.159124
0
LINE
8
0
10
292.700517
20
54.159124
11
293.889823
21
55.715890
0
LINE
8
0
10
293.889823
20
55.715890
11
295.467871
21
56.930983
0
LINE
8
0
10
295.467871
20
56.930983
11
297.308373
21
57.692063
0
LINE
8
0
10
297.308373
20
57.692063
11
299.250950
21
57.945756
0
LINE
8
0
10
299.250950
20
57.945756
11
301.193527
21
57.692063
0
LINE
8
0
10
301.193527
20
57.692063
11
303.034029
21
56.930983
0
LINE
8
0
10
303.034029
20
56.930983
11
304.612077
21
55.715890
0
LINE
8
0
10
304.612077
20
55.715890
11
305.801383
21
54.159124
0
LINE
8
0
10
305.801383
20
54.159124
11
306.551004
21
52.349143
0
LINE
8
0
10
306.551004
20
52.349143
11
306.810000
21
50.374400
0
LINE
8
0
10
306.810000
20
50.374400
11
306.810000
21
50.374400
0
LINE
8
0
10
306.810000
20
99.508200
11
306.551004
21
97.533457
0
LINE
8
0
10
306.551004
20
97.533457
11
305.801383
21
95.723476
0
LINE
8
0
10
305.801383
20
95.723476
11
304.612077
21
94.166710
0
LINE
8
0
10
304.612077
20
94.166710
11
303.034029
21
92.951617
0
LINE
8
0
10
303.034029
20
92.951617
11
301.193527
21
92.190537
0
LINE
8
0
10
301.193527
20
92.190537
11
299.250950
21
91.936844
0
LINE
8
0
10
299.250950
20
91.936844
11
297.308373
21
92.190537
0
LINE
8
0
10
297.308373
20
92.190537
11
295.467871
21
92.951617
0
LINE
8
0
10
295.467871
20
92.951617
11
293.889823
21
94.166710
0
LINE
8
0
10
293.889823
20
94.166710
11
292.700517
21
95.723476
0
LINE
8
0
10
292.700517
20
95.723476
11
291.950896
21
97.533457
0
LINE
8
0
10
291.950896
20
97.533457
11
291.691900
21
99.508200
0
LINE
8
0
10
291.691900
20
99.508200
11
291.950896
21
101.482943
0
LINE
8
0
10
291.950896
20
101.482943
11
292.700517
21
103.292924
0
LINE
8
0
10
292.700517
20
103.292924
11
293.889823
21
104.849690
0
LINE
8
0
10
293.889823
20
104.849690
11
295.467871
21
106.064783
0
LINE
8
0
10
295.467871
20
106.064783
11
297.308373
21
106.825863
0
LINE
8
0
10
297.308373
20
106.825863
11
299.250950
21
107.079556
0
LINE
8
0
10
299.250950
20
107.079556
11
301.193527
21
106.825863
0
LINE
8
0
10
301.193527
20
106.825863
11
303.034029
21
106.064783
0
LINE
8
0
10
303.034029
20
106.064783
11
304.612077
21
104.849690
0
LINE
8
0
10
304.612077
20
104.849690
11
305.801383
21
103.292924
0
LINE
8
0
10
305.801383
20
103.292924
11
306.551004
21
101.482943
0
LINE
8
0
10
306.551004
20
101.482943
11
306.810000
21
99.508200
0
LINE
8
0
10
306.810000
20
99.508200
11
306.810000
21
99.508200
0
LINE
8
0
10
418.305000
20
33.366000
11
282.242000
21
33.366000
0
LINE
8
0
10
282.242000
20
33.366000
11
282.242000
21
116.515600
0
LINE
8
0
10
282.242000
20
116.515600
11
418.305000
21
116.515600
0
LINE
8
0
10
418.305000
20
116.515600
11
418.305000
21
33.366000
0
LINE
8
0
10
136.731000
20
133.524000
11
136.469340
21
131.551710
0
LINE
8
0
10
136.469340
20
131.551710
11
135.718279
21
129.744475
0
LINE
8
0
10
135.718279
20
129.744475
11
134.528698
21
128.190420
0
LINE
8
0
10
134.528698
20
128.190420
11
132.951475
21
126.977671
0
LINE
8
0
10
132.951475
20
126.977671
11
131.112592
21
126.218130
0
LINE
8
0
10
131.112592
20
126.218130
11
129.171950
21
125.964950
0
LINE
8
0
10
129.171950
20
125.964950
11
127.231308
21
126.218130
0
LINE
8
0
10
127.231308
20
126.218130
11
125.392425
21
126.977671
0
LINE
8
0
10
125.392425
20
126.977671
11
123.815202
21
128.190420
0
LINE
8
0
10
123.815202
20
128.190420
11
122.625621
21
129.744475
0
LINE
8
0
10
122.625621
20
129.744475
11
121.874560
21
131.551710
0
LINE
8
0
10
121.874560
20
131.551710
11
121.612900
21
133.524000
0
LINE
8
0
10
121.612900
20
133.524000
11
121.874560
21
135.496290
0
LINE
8
0
10
121.874560
20
135.496290
11
122.625621
21
137.303525
0
LINE
8
0
10
122.625621
20
137.303525
11
123.815202
21
138.857580
0
LINE
8
0
10
123.815202
20
138.857580
11
125.392425
21
140.070329
0
LINE
8
0
10
125.392425
20
140.070329
11
127.231308
21
140.829870
0
LINE
8
0
10
127.231308
20
140.829870
11
129.171950
21
141.083050
0
LINE
8
0
10
129.171950
20
141.083050
11
131.112592
21
140.829870
0
LINE
8
0
10
131.112592
20
140.829870
11
132.951475
21
140.070329
0
LINE
8
0
10
132.951475
20
140.070329
11
134.528698
21
138.857580
0
LINE
8
0
10
134.528698
20
138.857580
11
135.718279
21
137.303525
0
LINE
8
0
10
135.718279
20
137.303525
11
136.469340
21
135.496290
0
LINE
8
0
10
136.469340
20
135.496290
11
136.731000
21
133.524000
0
LINE
8
0
10
136.731000
20
133.524000
11
136.731000
21
133.524000
0
LINE
8
0
10
136.731000
20
182.658000
11
136.469340
21
180.685710
0
LINE
8
0
10
136.469340
20
180.685710
11
135.718279
21
178.878475
0
LINE
8
0
10
135.718279
20
178.878475
11
134.528698
21
177.324420
0
LINE
8
0
10
134.528698
20
177.324420
11
132.951475
21
176.111671
0
LINE
8
0
10
132.951475
20
176.111671
11
131.112592
21
175.352130
0
LINE
8
0
10
131.112592
20
175.352130
11
129.171950
21
175.098950
0
LINE
8
0
10
129.171950
20
175.098950
11
127.231308
21
175.352130
0
LINE
8
0
10
127.231308
20
175.352130
11
125.392425
21
176.111671
0
LINE
8
0
10
125.392425
20
176.111671
11
123.815202
21
177.324420
0
LINE
8
0
10
123.815202
20
177.324420
11
122.625621
21
178.878475
0
LINE
8
0
10
122.625621
20
178.878475
11
121.874560
21
180.685710
0
LINE
8
0
10
121.874560
20
180.685710
11
121.612900
21
182.658000
0
LINE
8
0
10
121.612900
20
182.658000
11
121.874560
21
184.630290
0
LINE
8
0
10
121.874560
20
184.630290
11
122.625621
21
186.437525
0
LINE
8
0
10
122.625621
20
186.437525
11
123.815202
21
187.991580
0
LINE
8
0
10
123.815202
20
187.991580
11
125.392425
21
189.204329
0
LINE
8
0
10
125.392425
20
189.204329
11
127.231308
21
189.963870
0
LINE
8
0
10
127.231308
20
189.963870
11
129.171950
21
190.217050
0
LINE
8
0
10
129.171950
20
190.217050
11
131.112592
21
189.963870
0
LINE
8
0
10
131.112592
20
189.963870
11
132.951475
21
189.204329
0
LINE
8
0
10
132.951475
20
189.204329
11
134.528698
21
187.991580
0
LINE
8
0
10
134.528698
20
187.991580
11
135.718279
21
186.437525
0
LINE
8
0
10
135.718279
20
186.437525
11
136.469340
21
184.630290
0
LINE
8
0
10
136.469340
20
184.630290
11
136.731000
21
182.658000
0
LINE
8
0
10
136.731000
20
182.658000
11
136.731000
21
182.658000
0
LINE
8
0
10
34.683800
20
133.524000
11
34.424804
21
131.549257
0
LINE
8
0
10
34.424804
20
131.549257
11
33.675183
21
129.739276
0
LINE
8
0
10
33.675183
20
129.739276
11
32.485877
21
128.182510
0
LINE
8
0
10
32.485877
20
128.182510
11
30.907829
21
126.967417
0
LINE
8
0
10
30.907829
20
126.967417
11
29.067327
21
126.206337
0
LINE
8
0
10
29.067327
20
126.206337
11
27.124750
21
125.952644
0
LINE
8
0
10
27.124750
20
125.952644
11
25.182173
21
126.206337
0
LINE
8
0
10
25.182173
20
126.206337
11
23.341671
21
126.967417
0
LINE
8
0
10
23.341671
20
126.967417
11
21.763623
21
128.182510
0
LINE
8
0
10
21.763623
20
128.182510
11
20.574317
21
129.739276
0
LINE
8
0
10
20.574317
20
129.739276
11
19.824696
21
131.549257
0
LINE
8
0
10
19.824696
20
131.549257
11
19.565700
21
133.524000
0
LINE
8
0
10
19.565700
20
133.524000
11
19.824696
21
135.498743
0
LINE
8
0
10
19.824696
20
135.498743
11
20.574317
21
137.308724
0
LINE
8
0
10
20.574317
20
137.308724
11
21.763623
21
138.865490
0
LINE
8
0
10
21.763623
20
138.865490
11
23.341671
21
140.080583
0
LINE
8
0
10
23.341671
20
140.080583
11
25.182173
21
140.841663
0
LINE
8
0
10
25.182173
20
140.841663
11
27.124750
21
141.095356
0
LINE
8
0
10
27.124750
20
141.095356
11
29.067327
21
140.841663
0
LINE
8
0
10
29.067327
20
140.841663
11
30.907829
21
140.080583
0
LINE
8
0
10
30.907829
20
140.080583
11
32.485877
21
138.865490
0
LINE
8
0
10
32.485877
20
138.865490
11
33.675183
21
137.308724
0
LINE
8
0
10
33.675183
20
137.308724
11
34.424804
21
135.498743
0
LINE
8
0
10
34.424804
20
135.498743
11
34.683800
21
133.524000
0
LINE
8
0
10
34.683800
20
133.524000
11
34.683800
21
133.524000
0
LINE
8
0
10
34.683800
20
182.658000
11
34.424804
21
180.683257
0
LINE
8
0
10
34.424804
20
180.683257
11
33.675183
21
178.873276
0
LINE
8
0
10
33.675183
20
178.873276
11
32.485877
21
177.316510
0
LINE
8
0
10
32.485877
20
177.316510
11
30.907829
21
176.101417
0
LINE
8
0
10
30.907829
20
176.101417
11
29.067327
21
175.340337
0
LINE
8
0
10
29.067327
20
175.340337
11
27.124750
21
175.086644
0
LINE
8
0
10
27.124750
20
175.086644
11
25.182173
21
175.340337
0
LINE
8
0
10
25.182173
20
175.340337
11
23.341671
21
176.101417
0
LINE
8
0
10
23.341671
20
176.101417
11
21.763623
21
177.316510
0
LINE
8
0
10
21.763623
20
177.316510
11
20.574317
21
178.873276
0
LINE
8
0
10
20.574317
20
178.873276
11
19.824696
21
180.683257
0
LINE
8
0
10
19.824696
20
180.683257
11
19.565700
21
182.658000
0
LINE
8
0
10
19.565700
20
182.658000
11
19.824696
21
184.632743
0
LINE
8
0
10
19.824696
20
184.632743
11
20.574317
21
186.442724
0
LINE
8
0
10
20.574317
20
186.442724
11
21.763623
21
187.999490
0
LINE
8
0
10
21.763623
20
187.999490
11
23.341671
21
189.214583
0
LINE
8
0
10
23.341671
20
189.214583
11
25.182173
21
189.975663
0
LINE
8
0
10
25.182173
20
189.975663
11
27.124750
21
190.229356
0
LINE
8
0
10
27.124750
20
190.229356
11
29.067327
21
189.975663
0
LINE
8
0
10
29.067327
20
189.975663
11
30.907829
21
189.214583
0
LINE
8
0
10
30.907829
20
189.214583
11
32.485877
21
187.999490
0
LINE
8
0
10
32.485877
20
187.999490
11
33.675183
21
186.442724
0
LINE
8
0
10
33.675183
20
186.442724
11
34.424804
21
184.632743
0
LINE
8
0
10
34.424804
20
184.632743
11
34.683800
21
182.658000
0
LINE
8
0
10
34.683800
20
182.658000
11
34.683800
21
182.658000
0
LINE
8
0
10
146.179000
20
116.516000
11
10.115900
21
116.516000
0
LINE
8
0
10
10.115900
20
116.516000
11
10.115900
21
199.665600
0
LINE
8
0
10
10.115900
20
199.665600
11
146.179000
21
199.665600
0
LINE
8
0
10
146.179000
20
199.665600
11
146.179000
21
116.516000
0
LINE
8
0
10
272.794000
20
133.524000
11
272.532340
21
131.551710
0
LINE
8
0
10
272.532340
20
131.551710
11
271.781279
21
129.744475
0
LINE
8
0
10
271.781279
20
129.744475
11
270.591698
21
128.190420
0
LINE
8
0
10
270.591698
20
128.190420
11
269.014475
21
126.977671
0
LINE
8
0
10
269.014475
20
126.977671
11
267.175592
21
126.218130
0
LINE
8
0
10
267.175592
20
126.218130
11
265.234950
21
125.964950
0
LINE
8
0
10
265.234950
20
125.964950
11
263.294308
21
126.218130
0
LINE
8
0
10
263.294308
20
126.218130
11
261.455425
21
126.977671
0
LINE
8
0
10
261.455425
20
126.977671
11
259.878202
21
128.190420
0
LINE
8
0
10
259.878202
20
128.190420
11
258.688621
21
129.744475
0
LINE
8
0
10
258.688621
20
129.744475
11
257.937560
21
131.551710
0
LINE
8
0
10
257.937560
20
131.551710
11
257.675900
21
133.524000
0
LINE
8
0
10
257.675900
20
133.524000
11
257.937560
21
135.496290
0
LINE
8
0
10
257.937560
20
135.496290
11
258.688621
21
137.303525
0
LINE
8
0
10
258.688621
20
137.303525
11
259.878202
21
138.857580
0
LINE
8
0
10
259.878202
20
138.857580
11
261.455425
21
140.070329
0
LINE
8
0
10
261.455425
20
140.070329
11
263.294308
21
140.829870
0
LINE
8
0
10
263.294308
20
140.829870
11
265.234950
21
141.083050
0
LINE
8
0
10
265.234950
20
141.083050
11
267.175592
21
140.829870
0
LINE
8
0
10
267.175592
20
140.829870
11
269.014475
21
140.070329
0
LINE
8
0
10
269.014475
20
140.070329
11
270.591698
21
138.857580
0
LINE
8
0
10
270.591698
20
138.857580
11
271.781279
21
137.303525
0
LINE
8
0
10
271.781279
20
137.303525
11
272.532340
21
135.496290
0
LINE
8
0
10
272.532340
20
135.496290
11
272.794000
21
133.524000
0
LINE
8
0
10
272.794000
20
133.524000
11
272.794000
21
133.524000
0
LINE
8
0
10
272.794000
20
182.658000
11
272.532340
21
180.685710
0
LINE
8
0
10
272.532340
20
180.685710
11
271.781279
21
178.878475
0
LINE
8
0
10
271.781279
20
178.878475
11
270.591698
21
177.324420
0
LINE
8
0
10
270.591698
20
177.324420
11
269.014475
21
176.111671
0
LINE
8
0
10
269.014475
20
176.111671
11
267.175592
21
175.352130
0
LINE
8
0
10
267.175592
20
175.352130
11
265.234950
21
175.098950
0
LINE
8
0
10
265.234950
20
175.098950
11
263.294308
21
175.352130
0
LINE
8
0
10
263.294308
20
175.352130
11
261.455425
21
176.111671
0
LINE
8
0
10
261.455425
20
176.111671
11
259.878202
21
177.324420
0
LINE
8
0
10
259.878202
20
177.324420
11
258.688621
21
178.878475
0
LINE
8
0
10
258.688621
20
178.878475
11
257.937560
21
180.685710
0
LINE
8
0
10
257.937560
20
180.685710
11
257.675900
21
182.658000
0
LINE
8
0
10
257.675900
20
182.658000
11
257.937560
21
184.630290
0
LINE
8
0
10
257.937560
20
184.630290
11
258.688621
21
186.437525
0
LINE
8
0
10
258.688621
20
186.437525
11
259.878202
21
187.991580
0
LINE
8
0
10
259.878202
20
187.991580
11
261.455425
21
189.204329
0
LINE
8
0
10
261.455425
20
189.204329
11
263.294308
21
189.963870
0
LINE
8
0
10
263.294308
20
189.963870
11
265.234950
21
190.217050
0
LINE
8
0
10
265.234950
20
190.217050
11
267.175592
21
189.963870
0
LINE
8
0
10
267.175592
20
189.963870
11
269.014475
21
189.204329
0
LINE
8
0
10
269.014475
20
189.204329
11
270.591698
21
187.991580
0
LINE
8
0
10
270.591698
20
187.991580
11
271.781279
21
186.437525
0
LINE
8
0
10
271.781279
20
186.437525
11
272.532340
21
184.630290
0
LINE
8
0
10
272.532340
20
184.630290
11
272.794000
21
182.658000
0
LINE
8
0
10
272.794000
20
182.658000
11
272.794000
21
182.658000
0
LINE
8
0
10
170.747000
20
133.524000
11
170.488004
21
131.549257
0
LINE
8
0
10
170.488004
20
131.549257
11
169.738383
21
129.739276
0
LINE
8
0
10
169.738383
20
129.739276
11
168.549077
21
128.182510
0
LINE
8
0
10
168.549077
20
128.182510
11
166.971029
21
126.967417
0
LINE
8
0
10
166.971029
20
126.967417
11
165.130527
21
126.206337
0
LINE
8
0
10
165.130527
20
126.206337
11
163.187950
21
125.952644
0
LINE
8
0
10
163.187950
20
125.952644
11
161.245373
21
126.206337
0
LINE
8
0
10
161.245373
20
126.206337
11
159.404871
21
126.967417
0
LINE
8
0
10
159.404871
20
126.967417
11
157.826823
21
128.182510
0
LINE
8
0
10
157.826823
20
128.182510
11
156.637517
21
129.739276
0
LINE
8
0
10
156.637517
20
129.739276
11
155.887896
21
131.549257
0
LINE
8
0
10
155.887896
20
131.549257
11
155.628900
21
133.524000
0
LINE
8
0
10
155.628900
20
133.524000
11
155.887896
21
135.498743
0
LINE
8
0
10
155.887896
20
135.498743
11
156.637517
21
137.308724
0
LINE
8
0
10
156.637517
20
137.308724
11
157.826823
21
138.865490
0
LINE
8
0
10
157.826823
20
138.865490
11
159.404871
21
140.080583
0
LINE
8
0
10
159.404871
20
140.080583
11
161.245373
21
140.841663
0
LINE
8
0
10
161.245373
20
140.841663
11
163.187950
21
141.095356
0
LINE
8
0
10
163.187950
20
141.095356
11
165.130527
21
140.841663
0
LINE
8
0
10
165.130527
20
140.841663
11
166.971029
21
140.080583
0
LINE
8
0
10
166.971029
20
140.080583
11
168.549077
21
138.865490
0
LINE
8
0
10
168.549077
20
138.865490
11
169.738383
21
137.308724
0
LINE
8
0
10
169.738383
20
137.308724
11
170.488004
21
135.498743
0
LINE
8
0
10
170.488004
20
135.498743
11
170.747000
21
133.524000
0
LINE
8
0
10
170.747000
20
133.524000
11
170.747000
21
133.524000
0
LINE
8
0
10
170.747000
20
182.658000
11
170.488004
21
180.683257
0
LINE
8
0
10
170.488004
20
180.683257
11
169.738383
21
178.873276
0
LINE
8
0
10
169.738383
20
178.873276
11
168.549077
21
177.316510
0
LINE
8
0
10
168.549077
20
177.316510
11
166.971029
21
176.101417
0
LINE
8
0
10
166.971029
20
176.101417
11
165.130527
21
175.340337
0
LINE
8
0
10
165.130527
20
175.340337
11
163.187950
21
175.086644
0
LINE
8
0
10
163.187950
20
175.086644
11
161.245373
21
175.340337
0
LINE
8
0
10
161.245373
20
175.340337
11
159.404871
21
176.101417
0
LINE
8
0
10
159.404871
20
176.101417
11
157.826823
21
177.316510
0
LINE
8
0
10
157.826823
20
177.316510
11
156.637517
21
178.873276
0
LINE
8
0
10
156.637517
20
178.873276
11
155.887896
21
180.683257
0
LINE
8
0
10
155.887896
20
180.683257
11
155.628900
21
182.658000
0
LINE
8
0
10
155.628900
20
182.658000
11
155.887896
21
184.632743
0
LINE
8
0
10
155.887896
20
184.632743
11
156.637517
21
186.442724
0
LINE
8
0
10
156.637517
20
186.442724
11
157.826823
21
187.999490
0
LINE
8
0
10
157.826823
20
187.999490
11
159.404871
21
189.214583
0
LINE
8
0
10
159.404871
20
189.214583
11
161.245373
21
189.975663
0
LINE
8
0
10
161.245373
20
189.975663
11
163.187950
21
190.229356
0
LINE
8
0
10
163.187950
20
190.229356
11
165.130527
21
189.975663
0
LINE
8
0
10
165.130527
20
189.975663
11
166.971029
21
189.214583
0
LINE
8
0
10
166.971029
20
189.214583
11
168.549077
21
187.999490
0
LINE
8
0
10
168.549077
20
187.999490
11
169.738383
21
186.442724
0
LINE
8
0
10
169.738383
20
186.442724
11
170.488004
21
184.632743
0
LINE
8
0
10
170.488004
20
184.632743
11
170.747000
21
182.658000
0
LINE
8
0
10
170.747000
20
182.658000
11
170.747000
21
182.658000
0
LINE
8
0
10
282.242000
20
116.516000
11
146.179000
21
116.516000
0
LINE
8
0
10
146.179000
20
116.516000
11
146.179000
21
199.665600
0
LINE
8
0
10
146.179000
20
199.665600
11
282.242000
21
199.665600
0
LINE
8
0
10
282.242000
20
199.665600
11
282.242000
21
116.516000
0
LINE
8
0
10
408.857000
20
133.524000
11
408.595340
21
131.551710
0
LINE
8
0
10
408.595340
20
131.551710
11
407.844279
21
129.744475
0
LINE
8
0
10
407.844279
20
129.744475
11
406.654698
21
128.190420
0
LINE
8
0
10
406.654698
20
128.190420
11
405.077475
21
126.977671
0
LINE
8
0
10
405.077475
20
126.977671
11
403.238592
21
126.218130
0
LINE
8
0
10
403.238592
20
126.218130
11
401.297950
21
125.964950
0
LINE
8
0
10
401.297950
20
125.964950
11
399.357308
21
126.218130
0
LINE
8
0
10
399.357308
20
126.218130
11
397.518425
21
126.977671
0
LINE
8
0
10
397.518425
20
126.977671
11
395.941202
21
128.190420
0
LINE
8
0
10
395.941202
20
128.190420
11
394.751621
21
129.744475
0
LINE
8
0
10
394.751621
20
129.744475
11
394.000560
21
131.551710
0
LINE
8
0
10
394.000560
20
131.551710
11
393.738900
21
133.524000
0
LINE
8
0
10
393.738900
20
133.524000
11
394.000560
21
135.496290
0
LINE
8
0
10
394.000560
20
135.496290
11
394.751621
21
137.303525
0
LINE
8
0
10
394.751621
20
137.303525
11
395.941202
21
138.857580
0
LINE
8
0
10
395.941202
20
138.857580
11
397.518425
21
140.070329
0
LINE
8
0
10
397.518425
20
140.070329
11
399.357308
21
140.829870
0
LINE
8
0
10
399.357308
20
140.829870
11
401.297950
21
141.083050
0
LINE
8
0
10
401.297950
20
141.083050
11
403.238592
21
140.829870
0
LINE
8
0
10
403.238592
20
140.829870
11
405.077475
21
140.070329
0
LINE
8
0
10
405.077475
20
140.070329
11
406.654698
21
138.857580
0
LINE
8
0
10
406.654698
20
138.857580
11
407.844279
21
137.303525
0
LINE
8
0
10
407.844279
20
137.303525
11
408.595340
21
135.496290
0
LINE
8
0
10
408.595340
20
135.496290
11
408.857000
21
133.524000
0
LINE
8
0
10
408.857000
20
133.524000
11
408.857000
21
133.524000
0
LINE
8
0
10
408.857000
20
182.658000
11
408.595340
21
180.685710
0
LINE
8
0
10
408.595340
20
180.685710
11
407.844279
21
178.878475
0
LINE
8
0
10
407.844279
20
178.878475
11
406.654698
21
177.324420
0
LINE
8
0
10
406.654698
20
177.324420
11
405.077475
21
176.111671
0
LINE
8
0
10
405.077475
20
176.111671
11
403.238592
21
175.352130
0
LINE
8
0
10
403.238592
20
175.352130
11
401.297950
21
175.098950
0
LINE
8
0
10
401.297950
20
175.098950
11
399.357308
21
175.352130
0
LINE
8
0
10
399.357308
20
175.352130
11
397.518425
21
176.111671
0
LINE
8
0
10
397.518425
20
176.111671
11
395.941202
21
177.324420
0
LINE
8
0
10
395.941202
20
177.324420
11
394.751621
21
178.878475
0
LINE
8
0
10
394.751621
20
178.878475
11
394.000560
21
180.685710
0
LINE
8
0
10
394.000560
20
180.685710
11
393.738900
21
182.658000
0
LINE
8
0
10
393.738900
20
182.658000
11
394.000560
21
184.630290
0
LINE
8
0
10
394.000560
20
184.630290
11
394.751621
21
186.437525
0
LINE
8
0
10
394.751621
20
186.437525
11
395.941202
21
187.991580
0
LINE
8
0
10
395.941202
20
187.991580
11
397.518425
21
189.204329
0
LINE
8
0
10
397.518425
20
189.204329
11
399.357308
21
189.963870
0
LINE
8
0
10
399.357308
20
189.963870
11
401.297950
21
190.217050
0
LINE
8
0
10
401.297950
20
190.217050
11
403.238592
21
189.963870
0
LINE
8
0
10
403.238592
20
189.963870
11
405.077475
21
189.204329
0
LINE
8
0
10
405.077475
20
189.204329
11
406.654698
21
187.991580
0
LINE
8
0
10
406.654698
20
187.991580
11
407.844279
21
186.437525
0
LINE
8
0
10
407.844279
20
186.437525
11
408.595340
21
184.630290
0
LINE
8
0
10
408.595340
20
184.630290
11
408.857000
21
182.658000
0
LINE
8
0
10
408.857000
20
182.658000
11
408.857000
21
182.658000
0
LINE
8
0
10
306.810000
20
133.524000
11
306.551004
21
131.549257
0
LINE
8
0
10
306.551004
20
131.549257
11
305.801383
21
129.739276
0
LINE
8
0
10
305.801383
20
129.739276
11
304.612077
21
128.182510
0
LINE
8
0
10
304.612077
20
128.182510
11
303.034029
21
126.967417
0
LINE
8
0
10
303.034029
20
126.967417
11
301.193527
21
126.206337
0
LINE
8
0
10
301.193527
20
126.206337
11
299.250950
21
125.952644
0
LINE
8
0
10
299.250950
20
125.952644
11
297.308373
21
126.206337
0
LINE
8
0
10
297.308373
20
126.206337
11
295.467871
21
126.967417
0
LINE
8
0
10
295.467871
20
126.967417
11
293.889823
21
128.182510
0
LINE
8
0
10
293.889823
20
128.182510
11
292.700517
21
129.739276
0
LINE
8
0
10
292.700517
20
129.739276
11
291.950896
21
131.549257
0
LINE
8
0
10
291.950896
20
131.549257
11
291.691900
21
133.524000
0
LINE
8
0
10
291.691900
20
133.524000
11
291.950896
21
135.498743
0
LINE
8
0
10
291.950896
20
135.498743
11
292.700517
21
137.308724
0
LINE
8
0
10
292.700517
20
137.308724
11
293.889823
21
138.865490
0
LINE
8
0
10
293.889823
20
138.865490
11
295.467871
21
140.080583
0
LINE
8
0
10
295.467871
20
140.080583
11
297.308373
21
140.841663
0
LINE
8
0
10
297.308373
20
140.841663
11
299.250950
21
141.095356
0
LINE
8
0
10
299.250950
20
141.095356
11
301.193527
21
140.841663
0
LINE
8
0
10
301.193527
20
140.841663
11
303.034029
21
140.080583
0
LINE
8
0
10
303.034029
20
140.080583
11
304.612077
21
138.865490
0
LINE
8
0
10
304.612077
20
138.865490
11
305.801383
21
137.308724
0
LINE
8
0
10
305.801383
20
137.308724
11
306.551004
21
135.498743
0
LINE
8
0
10
306.551004
20
135.498743
11
306.810000
21
133.524000
0
LINE
8
0
10
306.810000
20
133.524000
11
306.810000
21
133.524000
0
LINE
8
0
10
306.810000
20
182.658000
11
306.551004
21
180.683257
0
LINE
8
0
10
306.551004
20
180.683257
11
305.801383
21
178.873276
0
LINE
8
0
10
305.801383
20
178.873276
11
304.612077
21
177.316510
0
LINE
8
0
10
304.612077
20
177.316510
11
303.034029
21
176.101417
0
LINE
8
0
10
303.034029
20
176.101417
11
301.193527
21
175.340337
0
LINE
8
0
10
301.193527
20
175.340337
11
299.250950
21
175.086644
0
LINE
8
0
10
299.250950
20
175.086644
11
297.308373
21
175.340337
0
LINE
8
0
10
297.308373
20
175.340337
11
295.467871
21
176.101417
0
LINE
8
0
10
295.467871
20
176.101417
11
293.889823
21
177.316510
0
LINE
8
0
10
293.889823
20
177.316510
11
292.700517
21
178.873276
0
LINE
8
0
10
292.700517
20
178.873276
11
291.950896
21
180.683257
0
LINE
8
0
10
291.950896
20
180.683257
11
291.691900
21
182.658000
0
LINE
8
0
10
291.691900
20
182.658000
11
291.950896
21
184.632743
0
LINE
8
0
10
291.950896
20
184.632743
11
292.700517
21
186.442724
0
LINE
8
0
10
292.700517
20
186.442724
11
293.889823
21
187.999490
0
LINE
8
0
10
293.889823
20
187.999490
11
295.467871
21
189.214583
0
LINE
8
0
10
295.467871
20
189.214583
11
297.308373
21
189.975663
0
LINE
8
0
10
297.308373
20
189.975663
11
299.250950
21
190.229356
0
LINE
8
0
10
299.250950
20
190.229356
11
301.193527
21
189.975663
0
LINE
8
0
10
301.193527
20
189.975663
11
303.034029
21
189.214583
0
LINE
8
0
10
303.034029
20
189.214583
11
304.612077
21
187.999490
0
LINE
8
0
10
304.612077
20
187.999490
11
305.801383
21
186.442724
0
LINE
8
0
10
305.801383
20
186.442724
11
306.551004
21
184.632743
0
LINE
8
0
10
306.551004
20
184.632743
11
306.810000
21
182.658000
0
LINE
8
0
10
306.810000
20
182.658000
11
306.810000
21
182.658000
0
LINE
8
0
10
418.305000
20
116.516000
11
282.242000
21
116.516000
0
LINE
8
0
10
282.242000
20
116.516000
11
282.242000
21
199.665600
0
LINE
8
0
10
282.242000
20
199.665600
11
418.305000
21
199.665600
0
LINE
8
0
10
418.305000
20
199.665600
11
418.305000
21
116.516000
0
LINE
8
0
10
136.731000
20
216.674000
11
136.472004
21
214.699257
0
LINE
8
0
10
136.472004
20
214.699257
11
135.722383
21
212.889276
0
LINE
8
0
10
135.722383
20
212.889276
11
134.533077
21
211.332510
0
LINE
8
0
10
134.533077
20
211.332510
11
132.955029
21
210.117417
0
LINE
8
0
10
132.955029
20
210.117417
11
131.114527
21
209.356337
0
LINE
8
0
10
131.114527
20
209.356337
11
129.171950
21
209.102644
0
LINE
8
0
10
129.171950
20
209.102644
11
127.229373
21
209.356337
0
LINE
8
0
10
127.229373
20
209.356337
11
125.388871
21
210.117417
0
LINE
8
0
10
125.388871
20
210.117417
11
123.810823
21
211.332510
0
LINE
8
0
10
123.810823
20
211.332510
11
122.621517
21
212.889276
0
LINE
8
0
10
122.621517
20
212.889276
11
121.871896
21
214.699257
0
LINE
8
0
10
121.871896
20
214.699257
11
121.612900
21
216.674000
0
LINE
8
0
10
121.612900
20
216.674000
11
121.871896
21
218.648743
0
LINE
8
0
10
121.871896
20
218.648743
11
122.621517
21
220.458724
0
LINE
8
0
10
122.621517
20
220.458724
11
123.810823
21
222.015490
0
LINE
8
0
10
123.810823
20
222.015490
11
125.388871
21
223.230583
0
LINE
8
0
10
125.388871
20
223.230583
11
127.229373
21
223.991663
0
LINE
8
0
10
127.229373
20
223.991663
11
129.171950
21
224.245356
0
LINE
8
0
10
129.171950
20
224.245356
11
131.114527
21
223.991663
0
LINE
8
0
10
131.114527
20
223.991663
11
132.955029
21
223.230583
0
LINE
8
0
10
132.955029
20
223.230583
11
134.533077
21
222.015490
0
LINE
8
0
10
134.533077
20
222.015490
11
135.722383
21
220.458724
0
LINE
8
0
10
135.722383
20
220.458724
11
136.472004
21
218.648743
0
LINE
8
0
10
136.472004
20
218.648743
11
136.731000
21
216.674000
0
LINE
8
0
10
136.731000
20
216.674000
11
136.731000
21
216.674000
0
LINE
8
0
10
136.731000
20
265.807000
11
136.472004
21
263.832257
0
LINE
8
0
10
136.472004
20
263.832257
11
135.722383
21
262.022276
0
LINE
8
0
10
135.722383
20
262.022276
11
134.533077
21
260.465510
0
LINE
8
0
10
134.533077
20
260.465510
11
132.955029
21
259.250417
0
LINE
8
0
10
132.955029
20
259.250417
11
131.114527
21
258.489337
0
LINE
8
0
10
131.114527
20
258.489337
11
129.171950
21
258.235644
0
LINE
8
0
10
129.171950
20
258.235644
11
127.229373
21
258.489337
0
LINE
8
0
10
127.229373
20
258.489337
11
125.388871
21
259.250417
0
LINE
8
0
10
125.388871
20
259.250417
11
123.810823
21
260.465510
0
LINE
8
0
10
123.810823
20
260.465510
11
122.621517
21
262.022276
0
LINE
8
0
10
122.621517
20
262.022276
11
121.871896
21
263.832257
0
LINE
8
0
10
121.871896
20
263.832257
11
121.612900
21
265.807000
0
LINE
8
0
10
121.612900
20
265.807000
11
121.871896
21
267.781743
0
LINE
8
0
10
121.871896
20
267.781743
11
122.621517
21
269.591724
0
LINE
8
0
10
122.621517
20
269.591724
11
123.810823
21
271.148490
0
LINE
8
0
10
123.810823
20
271.148490
11
125.388871
21
272.363583
0
LINE
8
0
10
125.388871
20
272.363583
11
127.229373
21
273.124663
0
LINE
8
0
10
127.229373
20
273.124663
11
129.171950
21
273.378356
0
LINE
8
0
10
129.171950
20
273.378356
11
131.114527
21
273.124663
0
LINE
8
0
10
131.114527
20
273.124663
11
132.955029
21
272.363583
0
LINE
8
0
10
132.955029
20
272.363583
11
134.533077
21
271.148490
0
LINE
8
0
10
134.533077
20
271.148490
11
135.722383
21
269.591724
0
LINE
8
0
10
135.722383
20
269.591724
11
136.472004
21
267.781743
0
LINE
8
0
10
136.472004
20
267.781743
11
136.731000
21
265.807000
0
LINE
8
0
10
136.731000
20
265.807000
11
136.731000
21
265.807000
0
LINE
8
0
10
34.683800
20
216.674000
11
34.424804
21
214.699257
0
LINE
8
0
10
34.424804
20
214.699257
11
33.675183
21
212.889276
0
LINE
8
0
10
33.675183
20
212.889276
11
32.485877
21
211.332510
0
LINE
8
0
10
32.485877
20
211.332510
11
30.907829
21
210.117417
0
LINE
8
0
10
30.907829
20
210.117417
11
29.067327
21
209.356337
0
LINE
8
0
10
29.067327
20
209.356337
11
27.124750
21
209.102644
0
LINE
8
0
10
27.124750
20
209.102644
11
25.182173
21
209.356337
0
LINE
8
0
10
25.182173
20
209.356337
11
23.341671
21
210.117417
0
LINE
8
0
10
23.341671
20
210.117417
11
21.763623
21
211.332510
0
LINE
8
0
10
21.763623
20
211.332510
11
20.574317
21
212.889276
0
LINE
8
0
10
20.574317
20
212.889276
11
19.824696
21
214.699257
0
LINE
8
0
10
19.824696
20
214.699257
11
19.565700
21
216.674000
0
LINE
8
0
10
19.565700
20
216.674000
11
19.824696
21
218.648743
0
LINE
8
0
10
19.824696
20
218.648743
11
20.574317
21
220.458724
0
LINE
8
0
10
20.574317
20
220.458724
11
21.763623
21
222.015490
0
LINE
8
0
10
21.763623
20
222.015490
11
23.341671
21
223.230583
0
LINE
8
0
10
23.341671
20
223.230583
11
25.182173
21
223.991663
0
LINE
8
0
10
25.182173
20
223.991663
11
27.124750
21
224.245356
0
LINE
8
0
10
27.124750
20
224.245356
11
29.067327
21
223.991663
0
LINE
8
0
10
29.067327
20
223.991663
11
30.907829
21
223.230583
0
LINE
8
0
10
30.907829
20
223.230583
11
32.485877
21
222.015490
0
LINE
8
0
10
32.485877
20
222.015490
11
33.675183
21
220.458724
0
LINE
8
0
10
33.675183
20
220.458724
11
34.424804
21
218.648743
0
LINE
8
0
10
34.424804
20
218.648743
11
34.683800
21
216.674000
0
LINE
8
0
10
34.683800
20
216.674000
11
34.683800
21
216.674000
0
LINE
8
0
10
34.683800
20
265.807000
11
34.424804
21
263.832257
0
LINE
8
0
10
34.424804
20
263.832257
11
33.675183
21
262.022276
0
LINE
8
0
10
33.675183
20
262.022276
11
32.485877
21
260.465510
0
LINE
8
0
10
32.485877
20
260.465510
11
30.907829
21
259.250417
0
LINE
8
0
10
30.907829
20
259.250417
11
29.067327
21
258.489337
0
LINE
8
0
10
29.067327
20
258.489337
11
27.124750
21
258.235644
0
LINE
8
0
10
27.124750
20
258.235644
11
25.182173
21
258.489337
0
LINE
8
0
10
25.182173
20
258.489337
11
23.341671
21
259.250417
0
LINE
8
0
10
23.341671
20
259.250417
11
21.763623
21
260.465510
0
LINE
8
0
10
21.763623
20
260.465510
11
20.574317
21
262.022276
0
LINE
8
0
10
20.574317
20
262.022276
11
19.824696
21
263.832257
0
LINE
8
0
10
19.824696
20
263.832257
11
19.565700
21
265.807000
0
LINE
8
0
10
19.565700
20
265.807000
11
19.824696
21
267.781743
0
LINE
8
0
10
19.824696
20
267.781743
11
20.574317
21
269.591724
0
LINE
8
0
10
20.574317
20
269.591724
11
21.763623
21
271.148490
0
LINE
8
0
10
21.763623
20
271.148490
11
23.341671
21
272.363583
0
LINE
8
0
10
23.341671
20
272.363583
11
25.182173
21
273.124663
0
LINE
8
0
10
25.182173
20
273.124663
11
27.124750
21
273.378356
0
LINE
8
0
10
27.124750
20
273.378356
11
29.067327
21
273.124663
0
LINE
8
0
10
29.067327
20
273.124663
11
30.907829
21
272.363583
0
LINE
8
0
10
30.907829
20
272.363583
11
32.485877
21
271.148490
0
LINE
8
0
10
32.485877
20
271.148490
11
33.675183
21
269.591724
0
LINE
8
0
10
33.675183
20
269.591724
11
34.424804
21
267.781743
0
LINE
8
0
10
34.424804
20
267.781743
11
34.683800
21
265.807000
0
LINE
8
0
10
34.683800
20
265.807000
11
34.683800
21
265.807000
0
LINE
8
0
10
146.179000
20
199.665000
11
10.115900
21
199.665000
0
LINE
8
0
10
10.115900
20
199.665000
11
10.115900
21
282.814600
0
LINE
8
0
10
10.115900
20
282.814600
11
146.179000
21
282.814600
0
LINE
8
0
10
146.179000
20
282.814600
11
146.179000
21
199.665000
0
LINE
8
0
10
272.794000
20
216.674000
11
272.532340
21
214.701710
0
LINE
8
0
10
272.532340
20
214.701710
11
271.781279
21
212.894475
0
LINE
8
0
10
271.781279
20
212.894475
11
270.591698
21
211.340420
0
LINE
8
0
10
270.591698
20
211.340420
11
269.014475
21
210.127671
0
LINE
8
0
10
269.014475
20
210.127671
11
267.175592
21
209.368130
0
LINE
8
0
10
267.175592
20
209.368130
11
265.234950
21
209.114950
0
LINE
8
0
10
265.234950
20
209.114950
11
263.294308
21
209.368130
0
LINE
8
0
10
263.294308
20
209.368130
11
261.455425
21
210.127671
0
LINE
8
0
10
261.455425
20
210.127671
11
259.878202
21
211.340420
0
LINE
8
0
10
259.878202
20
211.340420
11
258.688621
21
212.894475
0
LINE
8
0
10
258.688621
20
212.894475
11
257.937560
21
214.701710
0
LINE
8
0
10
257.937560
20
214.701710
11
257.675900
21
216.674000
0
LINE
8
0
10
257.675900
20
216.674000
11
257.937560
21
218.646290
0
LINE
8
0
10
257.937560
20
218.646290
11
258.688621
21
220.453525
0
LINE
8
0
10
258.688621
20
220.453525
11
259.878202
21
222.007580
0
LINE
8
0
10
259.878202
20
222.007580
11
261.455425
21
223.220329
0
LINE
8
0
10
261.455425
20
223.220329
11
263.294308
21
223.979870
0
LINE
8
0
10
263.294308
20
223.979870
11
265.234950
21
224.233050
0
LINE
8
0
10
265.234950
20
224.233050
11
267.175592
21
223.979870
0
LINE
8
0
10
267.175592
20
223.979870
11
269.014475
21
223.220329
0
LINE
8
0
10
269.014475
20
223.220329
11
270.591698
21
222.007580
0
LINE
8
0
10
270.591698
20
222.007580
11
271.781279
21
220.453525
0
LINE
8
0
10
271.781279
20
220.453525
11
272.532340
21
218.646290
0
LINE
8
0
10
272.532340
20
218.646290
11
272.794000
21
216.674000
0
LINE
8
0
10
272.794000
20
216.674000
11
272.794000
21
216.674000
0
LINE
8
0
10
272.794000
20
265.807000
11
272.532340
21
263.834710
0
LINE
8
0
10
272.532340
20
263.834710
11
271.781279
21
262.027475
0
LINE
8
0
10
271.781279
20
262.027475
11
270.591698
21
260.473420
0
LINE
8
0
10
270.591698
20
260.473420
11
269.014475
21
259.260671
0
LINE
8
0
10
269.014475
20
259.260671
11
267.175592
21
258.501130
0
LINE
8
0
10
267.175592
20
258.501130
11
265.234950
21
258.247950
0
LINE
8
0
10
265.234950
20
258.247950
11
263.294308
21
258.501130
0
LINE
8
0
10
263.294308
20
258.501130
11
261.455425
21
259.260671
0
LINE
8
0
10
261.455425
20
259.260671
11
259.878202
21
260.473420
0
LINE
8
0
10
259.878202
20
260.473420
11
258.688621
21
262.027475
0
LINE
8
0
10
258.688621
20
262.027475
11
257.937560
21
263.834710
0
LINE
8
0
10
257.937560
20
263.834710
11
257.675900
21
265.807000
0
LINE
8
0
10
257.675900
20
265.807000
11
257.937560
21
267.779290
0
LINE
8
0
10
257.937560
20
267.779290
11
258.688621
21
269.586525
0
LINE
8
0
10
258.688621
20
269.586525
11
259.878202
21
271.140580
0
LINE
8
0
10
259.878202
20
271.140580
11
261.455425
21
272.353329
0
LINE
8
0
10
261.455425
20
272.353329
11
263.294308
21
273.112870
0
LINE
8
0
10
263.294308
20
273.112870
11
265.234950
21
273.366050
0
LINE
8
0
10
265.234950
20
273.366050
11
267.175592
21
273.112870
0
LINE
8
0
10
267.175592
20
273.112870
11
269.014475
21
272.353329
0
LINE
8
0
10
269.014475
20
272.353329
11
270.591698
21
271.140580
0
LINE
8
0
10
270.591698
20
271.140580
11
271.781279
21
269.586525
0
LINE
8
0
10
271.781279
20
269.586525
11
272.532340
21
267.779290
0
LINE
8
0
10
272.532340
20
267.779290
11
272.794000
21
265.807000
0
LINE
8
0
10
272.794000
20
265.807000
11
272.794000
21
265.807000
0
LINE
8
0
10
170.747000
20
216.674000
11
170.488004
21
214.699257
0
LINE
8
0
10
170.488004
20
214.699257
11
169.738383
21
212.889276
0
LINE
8
0
10
169.738383
20
212.889276
11
168.549077
21
211.332510
0
LINE
8
0
10
168.549077
20
211.332510
11
166.971029
21
210.117417
0
LINE
8
0
10
166.971029
20
210.117417
11
165.130527
21
209.356337
0
LINE
8
0
10
165.130527
20
209.356337
11
163.187950
21
209.102644
0
LINE
8
0
10
163.187950
20
209.102644
11
161.245373
21
209.356337
0
LINE
8
0
10
161.245373
20
209.356337
11
159.404871
21
210.117417
0
LINE
8
0
10
159.404871
20
210.117417
11
157.826823
21
211.332510
0
LINE
8
0
10
157.826823
20
211.332510
11
156.637517
21
212.889276
0
LINE
8
0
10
156.637517
20
212.889276
11
155.887896
21
214.699257
0
LINE
8
0
10
155.887896
20
214.699257
11
155.628900
21
216.674000
0
LINE
8
0
10
155.628900
20
216.674000
11
155.887896
21
218.648743
0
LINE
8
0
10
155.887896
20
218.648743
11
156.637517
21
220.458724
0
LINE
8
0
10
156.637517
20
220.458724
11
157.826823
21
222.015490
0
LINE
8
0
10
157.826823
20
222.015490
11
159.404871
21
223.230583
0
LINE
8
0
10
159.404871
20
223.230583
11
161.245373
21
223.991663
0
LINE
8
0
10
161.245373
20
223.991663
11
163.187950
21
224.245356
0
LINE
8
0
10
163.187950
20
224.245356
11
165.130527
21
223.991663
0
LINE
8
0
10
165.130527
20
223.991663
11
166.971029
21
223.230583
0
LINE
8
0
10
166.971029
20
223.230583
11
168.549077
21
222.015490
0
LINE
8
0
10
168.549077
20
222.015490
11
169.738383
21
220.458724
0
LINE
8
0
10
169.738383
20
220.458724
11
170.488004
21
218.648743
0
LINE
8
0
10
170.488004
20
218.648743
11
170.747000
21
216.674000
0
LINE
8
0
10
170.747000
20
216.674000
11
170.747000
21
216.674000
0
LINE
8
0
10
170.747000
20
265.807000
11
170.488004
21
263.832257
0
LINE
8
0
10
170.488004
20
263.832257
11
169.738383
21
262.022276
0
LINE
8
0
10
169.738383
20
262.022276
11
168.549077
21
260.465510
0
LINE
8
0
10
168.549077
20
260.465510
11
166.971029
21
259.250417
0
LINE
8
0
10
166.971029
20
259.250417
11
165.130527
21
258.489337
0
LINE
8
0
10
165.130527
20
258.489337
11
163.187950
21
258.235644
0
LINE
8
0
10
163.187950
20
258.235644
11
161.245373
21
258.489337
0
LINE
8
0
10
161.245373
20
258.489337
11
159.404871
21
259.250417
0
LINE
8
0
10
159.404871
20
259.250417
11
157.826823
21
260.465510
0
LINE
8
0
10
157.826823
20
260.465510
11
156.637517
21
262.022276
0
LINE
8
0
10
156.637517
20
262.022276
11
155.887896
21
263.832257
0
LINE
8
0
10
155.887896
20
263.832257
11
155.628900
21
265.807000
0
LINE
8
0
10
155.628900
20
265.807000
11
155.887896
21
267.781743
0
LINE
8
0
10
155.887896
20
267.781743
11
156.637517
21
269.591724
0
LINE
8
0
10
156.637517
20
269.591724
11
157.826823
21
271.148490
0
LINE
8
0
10
157.826823
20
271.148490
11
159.404871
21
272.363583
0
LINE
8
0
10
159.404871
20
272.363583
11
161.245373
21
273.124663
0
LINE
8
0
10
161.245373
20
273.124663
11
163.187950
21
273.378356
0
LINE
8
0
10
163.187950
20
273.378356
11
165.130527
21
273.124663
0
LINE
8
0
10
165.130527
20
273.124663
11
166.971029
21
272.363583
0
LINE
8
0
10
166.971029
20
272.363583
11
168.549077
21
271.148490
0
LINE
8
0
10
168.549077
20
271.148490
11
169.738383
21
269.591724
0
LINE
8
0
10
169.738383
20
269.591724
11
170.488004
21
267.781743
0
LINE
8
0
10
170.488004
20
267.781743
11
170.747000
21
265.807000
0
LINE
8
0
10
170.747000
20
265.807000
11
170.747000
21
265.807000
0
LINE
8
0
10
282.242000
20
199.665000
11
146.179000
21
199.665000
0
LINE
8
0
10
146.179000
20
199.665000
11
146.179000
21
282.814600
0
LINE
8
0
10
146.179000
20
282.814600
11
282.242000
21
282.814600
0
LINE
8
0
10
282.242000
20
282.814600
11
282.242000
21
199.665000
0
LINE
8
0
10
408.857000
20
216.674000
11
408.595340
21
214.701710
0
LINE
8
0
10
408.595340
20
214.701710
11
407.844279
21
212.894475
0
LINE
8
0
10
407.844279
20
212.894475
11
406.654698
21
211.340420
0
LINE
8
0
10
406.654698
20
211.340420
11
405.077475
21
210.127671
0
LINE
8
0
10
405.077475
20
210.127671
11
403.238592
21
209.368130
0
LINE
8
0
10
403.238592
20
209.368130
11
401.297950
21
209.114950
0
LINE
8
0
10
401.297950
20
209.114950
11
399.357308
21
209.368130
0
LINE
8
0
10
399.357308
20
209.368130
11
397.518425
21
210.127671
0
LINE
8
0
10
397.518425
20
210.127671
11
395.941202
21
211.340420
0
LINE
8
0
10
395.941202
20
211.340420
11
394.751621
21
212.894475
0
LINE
8
0
10
394.751621
20
212.894475
11
394.000560
21
214.701710
0
LINE
8
0
10
394.000560
20
214.701710
11
393.738900
21
216.674000
0
LINE
8
0
10
393.738900
20
216.674000
11
394.000560
21
218.646290
0
LINE
8
0
10
394.000560
20
218.646290
11
394.751621
21
220.453525
0
LINE
8
0
10
394.751621
20
220.453525
11
395.941202
21
222.007580
0
LINE
8
0
10
395.941202
20
222.007580
11
397.518425
21
223.220329
0
LINE
8
0
10
397.518425
20
223.220329
11
399.357308
21
223.979870
0
LINE
8
0
10
399.357308
20
223.979870
11
401.297950
21
224.233050
0
LINE
8
0
10
401.297950
20
224.233050
11
403.238592
21
223.979870
0
LINE
8
0
10
403.238592
20
223.979870
11
405.077475
21
223.220329
0
LINE
8
0
10
405.077475
20
223.220329
11
406.654698
21
222.007580
0
LINE
8
0
10
406.654698
20
222.007580
11
407.844279
21
220.453525
0
LINE
8
0
10
407.844279
20
220.453525
11
408.595340
21
218.646290
0
LINE
8
0
10
408.595340
20
218.646290
11
408.857000
21
216.674000
0
LINE
8
0
10
408.857000
20
216.674000
11
408.857000
21
216.674000
0
LINE
8
0
10
408.857000
20
265.807000
11
408.595340
21
263.834710
0
LINE
8
0
10
408.595340
20
263.834710
11
407.844279
21
262.027475
0
LINE
8
0
10
407.844279
20
262.027475
11
406.654698
21
260.473420
0
LINE
8
0
10
406.654698
20
260.473420
11
405.077475
21
259.260671
0
LINE
8
0
10
405.077475
20
259.260671
11
403.238592
21
258.501130
0
LINE
8
0
10
403.238592
20
258.501130
11
401.297950
21
258.247950
0
LINE
8
0
10
401.297950
20
258.247950
11
399.357308
21
258.501130
0
LINE
8
0
10
399.357308
20
258.501130
11
397.518425
21
259.260671
0
LINE
8
0
10
397.518425
20
259.260671
11
395.941202
21
260.473420
0
LINE
8
0
10
395.941202
20
260.473420
11
394.751621
21
262.027475
0
LINE
8
0
10
394.751621
20
262.027475
11
394.000560
21
263.834710
0
LINE
8
0
10
394.000560
20
263.834710
11
393.738900
21
265.807000
0
LINE
8
0
10
393.738900
20
265.807000
11
394.000560
21
267.779290
0
LINE
8
0
10
394.000560
20
267.779290
11
394.751621
21
269.586525
0
LINE
8
0
10
394.751621
20
269.586525
11
395.941202
21
271.140580
0
LINE
8
0
10
395.941202
20
271.140580
11
397.518425
21
272.353329
0
LINE
8
0
10
397.518425
20
272.353329
11
399.357308
21
273.112870
0
LINE
8
0
10
399.357308
20
273.112870
11
401.297950
21
273.366050
0
LINE
8
0
10
401.297950
20
273.366050
11
403.238592
21
273.112870
0
LINE
8
0
10
403.238592
20
273.112870
11
405.077475
21
272.353329
0
LINE
8
0
10
405.077475
20
272.353329
11
406.654698
21
271.140580
0
LINE
8
0
10
406.654698
20
271.140580
11
407.844279
21
269.586525
0
LINE
8
0
10
407.844279
20
269.586525
11
408.595340
21
267.779290
0
LINE
8
0
10
408.595340
20
267.779290
11
408.857000
21
265.807000
0
LINE
8
0
10
408.857000
20
265.807000
11
408.857000
21
265.807000
0
LINE
8
0
10
306.810000
20
216.674000
11
306.551004
21
214.699257
0
LINE
8
0
10
306.551004
20
214.699257
11
305.801383
21
212.889276
0
LINE
8
0
10
305.801383
20
212.889276
11
304.612077
21
211.332510
0
LINE
8
0
10
304.612077
20
211.332510
11
303.034029
21
210.117417
0
LINE
8
0
10
303.034029
20
210.117417
11
301.193527
21
209.356337
0
LINE
8
0
10
301.193527
20
209.356337
11
299.250950
21
209.102644
0
LINE
8
0
10
299.250950
20
209.102644
11
297.308373
21
209.356337
0
LINE
8
0
10
297.308373
20
209.356337
11
295.467871
21
210.117417
0
LINE
8
0
10
295.467871
20
210.117417
11
293.889823
21
211.332510
0
LINE
8
0
10
293.889823
20
211.332510
11
292.700517
21
212.889276
0
LINE
8
0
10
292.700517
20
212.889276
11
291.950896
21
214.699257
0
LINE
8
0
10
291.950896
20
214.699257
11
291.691900
21
216.674000
0
LINE
8
0
10
291.691900
20
216.674000
11
291.950896
21
218.648743
0
LINE
8
0
10
291.950896
20
218.648743
11
292.700517
21
220.458724
0
LINE
8
0
10
292.700517
20
220.458724
11
293.889823
21
222.015490
0
LINE
8
0
10
293.889823
20
222.015490
11
295.467871
21
223.230583
0
LINE
8
0
10
295.467871
20
223.230583
11
297.308373
21
223.991663
0
LINE
8
0
10
297.308373
20
223.991663
11
299.250950
21
224.245356
0
LINE
8
0
10
299.250950
20
224.245356
11
301.193527
21
223.991663
0
LINE
8
0
10
301.193527
20
223.991663
11
303.034029
21
223.230583
0
LINE
8
0
10
303.034029
20
223.230583
11
304.612077
21
222.015490
0
LINE
8
0
10
304.612077
20
222.015490
11
305.801383
21
220.458724
0
LINE
8
0
10
305.801383
20
220.458724
11
306.551004
21
218.648743
0
LINE
8
0
10
306.551004
20
218.648743
11
306.810000
21
216.674000
0
LINE
8
0
10
306.810000
20
216.674000
11
306.810000
21
216.674000
0
LINE
8
0
10
306.810000
20
265.807000
11
306.551004
21
263.832257
0
LINE
8
0
10
306.551004
20
263.832257
11
305.801383
21
262.022276
0
LINE
8
0
10
305.801383
20
262.022276
11
304.612077
21
260.465510
0
LINE
8
0
10
304.612077
20
260.465510
11
303.034029
21
259.250417
0
LINE
8
0
10
303.034029
20
259.250417
11
301.193527
21
258.489337
0
LINE
8
0
10
301.193527
20
258.489337
11
299.250950
21
258.235644
0
LINE
8
0
10
299.250950
20
258.235644
11
297.308373
21
258.489337
0
LINE
8
0
10
297.308373
20
258.489337
11
295.467871
21
259.250417
0
LINE
8
0
10
295.467871
20
259.250417
11
293.889823
21
260.465510
0
LINE
8
0
10
293.889823
20
260.465510
11
292.700517
21
262.022276
0
LINE
8
0
10
292.700517
20
262.022276
11
291.950896
21
263.832257
0
LINE
8
0
10
291.950896
20
263.832257
11
291.691900
21
265.807000
0
LINE
8
0
10
291.691900
20
265.807000
11
291.950896
21
267.781743
0
LINE
8
0
10
291.950896
20
267.781743
11
292.700517
21
269.591724
0
LINE
8
0
10
292.700517
20
269.591724
11
293.889823
21
271.148490
0
LINE
8
0
10
293.889823
20
271.148490
11
295.467871
21
272.363583
0
LINE
8
0
10
295.467871
20
272.363583
11
297.308373
21
273.124663
0
LINE
8
0
10
297.308373
20
273.124663
11
299.250950
21
273.378356
0
LINE
8
0
10
299.250950
20
273.378356
11
301.193527
21
273.124663
0
LINE
8
0
10
301.193527
20
273.124663
11
303.034029
21
272.363583
0
LINE
8
0
10
303.034029
20
272.363583
11
304.612077
21
271.148490
0
LINE
8
0
10
304.612077
20
271.148490
11
305.801383
21
269.591724
0
LINE
8
0
10
305.801383
20
269.591724
11
306.551004
21
267.781743
0
LINE
8
0
10
306.551004
20
267.781743
11
306.810000
21
265.807000
0
LINE
8
0
10
306.810000
20
265.807000
11
306.810000
21
265.807000
0
LINE
8
0
10
418.305000
20
199.665000
11
282.242000
21
199.665000
0
LINE
8
0
10
282.242000
20
199.665000
11
282.242000
21
282.814600
0
LINE
8
0
10
282.242000
20
282.814600
11
418.305000
21
282.814600
0
LINE
8
0
10
418.305000
20
282.814600
11
418.305000
21
199.665000
0
LINE
8
0
10
136.731000
20
299.823000
11
136.469340
21
297.850710
0
LINE
8
0
10
136.469340
20
297.850710
11
135.718279
21
296.043475
0
LINE
8
0
10
135.718279
20
296.043475
11
134.528698
21
294.489420
0
LINE
8
0
10
134.528698
20
294.489420
11
132.951475
21
293.276671
0
LINE
8
0
10
132.951475
20
293.276671
11
131.112592
21
292.517130
0
LINE
8
0
10
131.112592
20
292.517130
11
129.171950
21
292.263950
0
LINE
8
0
10
129.171950
20
292.263950
11
127.231308
21
292.517130
0
LINE
8
0
10
127.231308
20
292.517130
11
125.392425
21
293.276671
0
LINE
8
0
10
125.392425
20
293.276671
11
123.815202
21
294.489420
0
LINE
8
0
10
123.815202
20
294.489420
11
122.625621
21
296.043475
0
LINE
8
0
10
122.625621
20
296.043475
11
121.874560
21
297.850710
0
LINE
8
0
10
121.874560
20
297.850710
11
121.612900
21
299.823000
0
LINE
8
0
10
121.612900
20
299.823000
11
121.874560
21
301.795290
0
LINE
8
0
10
121.874560
20
301.795290
11
122.625621
21
303.602525
0
LINE
8
0
10
122.625621
20
303.602525
11
123.815202
21
305.156580
0
LINE
8
0
10
123.815202
20
305.156580
11
125.392425
21
306.369329
0
LINE
8
0
10
125.392425
20
306.369329
11
127.231308
21
307.128870
0
LINE
8
0
10
127.231308
20
307.128870
11
129.171950
21
307.382050
0
LINE
8
0
10
129.171950
20
307.382050
11
131.112592
21
307.128870
0
LINE
8
0
10
131.112592
20
307.128870
11
132.951475
21
306.369329
0
LINE
8
0
10
132.951475
20
306.369329
11
134.528698
21
305.156580
0
LINE
8
0
10
134.528698
20
305.156580
11
135.718279
21
303.602525
0
LINE
8
0
10
135.718279
20
303.602525
11
136.469340
21
301.795290
0
LINE
8
0
10
136.469340
20
301.795290
11
136.731000
21
299.823000
0
LINE
8
0
10
136.731000
20
299.823000
11
136.731000
21
299.823000
0
LINE
8
0
10
136.731000
20
348.957000
11
136.469340
21
346.984710
0
LINE
8
0
10
136.469340
20
346.984710
11
135.718279
21
345.177475
0
LINE
8
0
10
135.718279
20
345.177475
11
134.528698
21
343.623420
0
LINE
8
0
10
134.528698
20
343.623420
11
132.951475
21
342.410671
0
LINE
8
0
10
132.951475
20
342.410671
11
131.112592
21
341.651130
0
LINE
8
0
10
131.112592
20
341.651130
11
129.171950
21
341.397950
0
LINE
8
0
10
129.171950
20
341.397950
11
127.231308
21
341.651130
0
LINE
8
0
10
127.231308
20
341.651130
11
125.392425
21
342.410671
0
LINE
8
0
10
125.392425
20
342.410671
11
123.815202
21
343.623420
0
LINE
8
0
10
123.815202
20
343.623420
11
122.625621
21
345.177475
0
LINE
8
0
10
122.625621
20
345.177475
11
121.874560
21
346.984710
0
LINE
8
0
10
121.874560
20
346.984710
11
121.612900
21
348.957000
0
LINE
8
0
10
121.612900
20
348.957000
11
121.874560
21
350.929290
0
LINE
8
0
10
121.874560
20
350.929290
11
122.625621
21
352.736525
0
LINE
8
0
10
122.625621
20
352.736525
11
123.815202
21
354.290580
0
LINE
8
0
10
123.815202
20
354.290580
11
125.392425
21
355.503329
0
LINE
8
0
10
125.392425
20
355.503329
11
127.231308
21
356.262870
0
LINE
8
0
10
127.231308
20
356.262870
11
129.171950
21
356.516050
0
LINE
8
0
10
129.171950
20
356.516050
11
131.112592
21
356.262870
0
LINE
8
0
10
131.112592
20
356.262870
11
132.951475
21
355.503329
0
LINE
8
0
10
132.951475
20
355.503329
11
134.528698
21
354.290580
0
LINE
8
0
10
134.528698
20
354.290580
11
135.718279
21
352.736525
0
LINE
8
0
10
135.718279
20
352.736525
11
136.469340
21
350.929290
0
LINE
8
0
10
136.469340
20
350.929290
11
136.731000
21
348.957000
0
LINE
8
0
10
136.731000
20
348.957000
11
136.731000
21
348.957000
0
LINE
8
0
10
34.683800
20
299.823000
11
34.424804
21
297.848257
0
LINE
8
0
10
34.424804
20
297.848257
11
33.675183
21
296.038276
0
LINE
8
0
10
33.675183
20
296.038276
11
32.485877
21
294.481510
0
LINE
8
0
10
32.485877
20
294.481510
11
30.907829
21
293.266417
0
LINE
8
0
10
30.907829
20
293.266417
11
29.067327
21
292.505337
0
LINE
8
0
10
29.067327
20
292.505337
11
27.124750
21
292.251644
0
LINE
8
0
10
27.124750
20
292.251644
11
25.182173
21
292.505337
0
LINE
8
0
10
25.182173
20
292.505337
11
23.341671
21
293.266417
0
LINE
8
0
10
23.341671
20
293.266417
11
21.763623
21
294.481510
0
LINE
8
0
10
21.763623
20
294.481510
11
20.574317
21
296.038276
0
LINE
8
0
10
20.574317
20
296.038276
11
19.824696
21
297.848257
0
LINE
8
0
10
19.824696
20
297.848257
11
19.565700
21
299.823000
0
LINE
8
0
10
19.565700
20
299.823000
11
19.824696
21
301.797743
0
LINE
8
0
10
19.824696
20
301.797743
11
20.574317
21
303.607724
0
LINE
8
0
10
20.574317
20
303.607724
11
21.763623
21
305.164490
0
LINE
8
0
10
21.763623
20
305.164490
11
23.341671
21
306.379583
0
LINE
8
0
10
23.341671
20
306.379583
11
25.182173
21
307.140663
0
LINE
8
0
10
25.182173
20
307.140663
11
27.124750
21
307.394356
0
LINE
8
0
10
27.124750
20
307.394356
11
29.067327
21
307.140663
0
LINE
8
0
10
29.067327
20
307.140663
11
30.907829
21
306.379583
0
LINE
8
0
10
30.907829
20
306.379583
11
32.485877
21
305.164490
0
LINE
8
0
10
32.485877
20
305.164490
11
33.675183
21
303.607724
0
LINE
8
0
10
33.675183
20
303.607724
11
34.424804
21
301.797743
0
LINE
8
0
10
34.424804
20
301.797743
11
34.683800
21
299.823000
0
LINE
8
0
10
34.683800
20
299.823000
11
34.683800
21
299.823000
0
LINE
8
0
10
34.683800
20
348.957000
11
34.424804
21
346.982257
0
LINE
8
0
10
34.424804
20
346.982257
11
33.675183
21
345.172276
0
LINE
8
0
10
33.675183
20
345.172276
11
32.485877
21
343.615510
0
LINE
8
0
10
32.485877
20
343.615510
11
30.907829
21
342.400417
0
LINE
8
0
10
30.907829
20
342.400417
11
29.067327
21
341.639337
0
LINE
8
0
10
29.067327
20
341.639337
11
27.124750
21
341.385644
0
LINE
8
0
10
27.124750
20
341.385644
11
25.182173
21
341.639337
0
LINE
8
0
10
25.182173
20
341.639337
11
23.341671
21
342.400417
0
LINE
8
0
10
23.341671
20
342.400417
11
21.763623
21
343.615510
0
LINE
8
0
10
21.763623
20
343.615510
11
20.574317
21
345.172276
0
LINE
8
0
10
20.574317
20
345.172276
11
19.824696
21
346.982257
0
LINE
8
0
10
19.824696
20
346.982257
11
19.565700
21
348.957000
0
LINE
8
0
10
19.565700
20
348.957000
11
19.824696
21
350.931743
0
LINE
8
0
10
19.824696
20
350.931743
11
20.574317
21
352.741724
0
LINE
8
0
10
20.574317
20
352.741724
11
21.763623
21
354.298490
0
LINE
8
0
10
21.763623
20
354.298490
11
23.341671
21
355.513583
0
LINE
8
0
10
23.341671
20
355.513583
11
25.182173
21
356.274663
0
LINE
8
0
10
25.182173
20
356.274663
11
27.124750
21
356.528356
0
LINE
8
0
10
27.124750
20
356.528356
11
29.067327
21
356.274663
0
LINE
8
0
10
29.067327
20
356.274663
11
30.907829
21
355.513583
0
LINE
8
0
10
30.907829
20
355.513583
11
32.485877
21
354.298490
0
LINE
8
0
10
32.485877
20
354.298490
11
33.675183
21
352.741724
0
LINE
8
0
10
33.675183
20
352.741724
11
34.424804
21
350.931743
0
LINE
8
0
10
34.424804
20
350.931743
11
34.683800
21
348.957000
0
LINE
8
0
10
34.683800
20
348.957000
11
34.683800
21
348.957000
0
LINE
8
0
10
146.179000
20
282.815000
11
10.116000
21
282.815000
0
LINE
8
0
10
10.116000
20
282.815000
11
10.116000
21
365.964600
0
LINE
8
0
10
10.116000
20
365.964600
11
146.179000
21
365.964600
0
LINE
8
0
10
146.179000
20
365.964600
11
146.179000
21
282.815000
0
LINE
8
0
10
272.794000
20
299.823000
11
272.532340
21
297.850710
0
LINE
8
0
10
272.532340
20
297.850710
11
271.781279
21
296.043475
0
LINE
8
0
10
271.781279
20
296.043475
11
270.591698
21
294.489420
0
LINE
8
0
10
270.591698
20
294.489420
11
269.014475
21
293.276671
0
LINE
8
0
10
269.014475
20
293.276671
11
267.175592
21
292.517130
0
LINE
8
0
10
267.175592
20
292.517130
11
265.234950
21
292.263950
0
LINE
8
0
10
265.234950
20
292.263950
11
263.294308
21
292.517130
0
LINE
8
0
10
263.294308
20
292.517130
11
261.455425
21
293.276671
0
LINE
8
0
10
261.455425
20
293.276671
11
259.878202
21
294.489420
0
LINE
8
0
10
259.878202
20
294.489420
11
258.688621
21
296.043475
0
LINE
8
0
10
258.688621
20
296.043475
11
257.937560
21
297.850710
0
LINE
8
0
10
257.937560
20
297.850710
11
257.675900
21
299.823000
0
LINE
8
0
10
257.675900
20
299.823000
11
257.937560
21
301.795290
0
LINE
8
0
10
257.937560
20
301.795290
11
258.688621
21
303.602525
0
LINE
8
0
10
258.688621
20
303.602525
11
259.878202
21
305.156580
0
LINE
8
0
10
259.878202
20
305.156580
11
261.455425
21
306.369329
0
LINE
8
0
10
261.455425
20
306.369329
11
263.294308
21
307.128870
0
LINE
8
0
10
263.294308
20
307.128870
11
265.234950
21
307.382050
0
LINE
8
0
10
265.234950
20
307.382050
11
267.175592
21
307.128870
0
LINE
8
0
10
267.175592
20
307.128870
11
269.014475
21
306.369329
0
LINE
8
0
10
269.014475
20
306.369329
11
270.591698
21
305.156580
0
LINE
8
0
10
270.591698
20
305.156580
11
271.781279
21
303.602525
0
LINE
8
0
10
271.781279
20
303.602525
11
272.532340
21
301.795290
0
LINE
8
0
10
272.532340
20
301.795290
11
272.794000
21
299.823000
0
LINE
8
0
10
272.794000
20
299.823000
11
272.794000
21
299.823000
0
LINE
8
0
10
272.794000
20
348.957000
11
272.532340
21
346.984710
0
LINE
8
0
10
272.532340
20
346.984710
11
271.781279
21
345.177475
0
LINE
8
0
10
271.781279
20
345.177475
11
270.591698
21
343.623420
0
LINE
8
0
10
270.591698
20
343.623420
11
269.014475
21
342.410671
0
LINE
8
0
10
269.014475
20
342.410671
11
267.175592
21
341.651130
0
LINE
8
0
10
267.175592
20
341.651130
11
265.234950
21
341.397950
0
LINE
8
0
10
265.234950
20
341.397950
11
263.294308
21
341.651130
0
LINE
8
0
10
263.294308
20
341.651130
11
261.455425
21
342.410671
0
LINE
8
0
10
261.455425
20
342.410671
11
259.878202
21
343.623420
0
LINE
8
0
10
259.878202
20
343.623420
11
258.688621
21
345.177475
0
LINE
8
0
10
258.688621
20
345.177475
11
257.937560
21
346.984710
0
LINE
8
0
10
257.937560
20
346.984710
11
257.675900
21
348.957000
0
LINE
8
0
10
257.675900
20
348.957000
11
257.937560
21
350.929290
0
LINE
8
0
10
257.937560
20
350.929290
11
258.688621
21
352.736525
0
LINE
8
0
10
258.688621
20
352.736525
11
259.878202
21
354.290580
0
LINE
8
0
10
259.878202
20
354.290580
11
261.455425
21
355.503329
0
LINE
8
0
10
261.455425
20
355.503329
11
263.294308
21
356.262870
0
LINE
8
0
10
263.294308
20
356.262870
11
265.234950
21
356.516050
0
LINE
8
0
10
265.234950
20
356.516050
11
267.175592
21
356.262870
0
LINE
8
0
10
267.175592
20
356.262870
11
269.014475
21
355.503329
0
LINE
8
0
10
269.014475
20
355.503329
11
270.591698
21
354.290580
0
LINE
8
0
10
270.591698
20
354.290580
11
271.781279
21
352.736525
0
LINE
8
0
10
271.781279
20
352.736525
11
272.532340
21
350.929290
0
LINE
8
0
10
272.532340
20
350.929290
11
272.794000
21
348.957000
0
LINE
8
0
10
272.794000
20
348.957000
11
272.794000
21
348.957000
0
LINE
8
0
10
170.747000
20
299.823000
11
170.488004
21
297.848257
0
LINE
8
0
10
170.488004
20
297.848257
11
169.738383
21
296.038276
0
LINE
8
0
10
169.738383
20
296.038276
11
168.549077
21
294.481510
0
LINE
8
0
10
168.549077
20
294.481510
11
166.971029
21
293.266417
0
LINE
8
0
10
166.971029
20
293.266417
11
165.130527
21
292.505337
0
LINE
8
0
10
165.130527
20
292.505337
11
163.187950
21
292.251644
0
LINE
8
0
10
163.187950
20
292.251644
11
161.245373
21
292.505337
0
LINE
8
0
10
161.245373
20
292.505337
11
159.404871
21
293.266417
0
LINE
8
0
10
159.404871
20
293.266417
11
157.826823
21
294.481510
0
LINE
8
0
10
157.826823
20
294.481510
11
156.637517
21
296.038276
0
LINE
8
0
10
156.637517
20
296.038276
11
155.887896
21
297.848257
0
LINE
8
0
10
155.887896
20
297.848257
11
155.628900
21
299.823000
0
LINE
8
0
10
155.628900
20
299.823000
11
155.887896
21
301.797743
0
LINE
8
0
10
155.887896
20
301.797743
11
156.637517
21
303.607724
0
LINE
8
0
10
156.637517
20
303.607724
11
157.826823
21
305.164490
0
LINE
8
0
10
157.826823
20
305.164490
11
159.404871
21
306.379583
0
LINE
8
0
10
159.404871
20
306.379583
11
161.245373
21
307.140663
0
LINE
8
0
10
161.245373
20
307.140663
11
163.187950
21
307.394356
0
LINE
8
0
10
163.187950
20
307.394356
11
165.130527
21
307.140663
0
LINE
8
0
10
165.130527
20
307.140663
11
166.971029
21
306.379583
0
LINE
8
0
10
166.971029
20
306.379583
11
168.549077
21
305.164490
0
LINE
8
0
10
168.549077
20
305.164490
11
169.738383
21
303.607724
0
LINE
8
0
10
169.738383
20
303.607724
11
170.488004
21
301.797743
0
LINE
8
0
10
170.488004
20
301.797743
11
170.747000
21
299.823000
0
LINE
8
0
10
170.747000
20
299.823000
11
170.747000
21
299.823000
0
LINE
8
0
10
170.747000
20
348.957000
11
170.488004
21
346.982257
0
LINE
8
0
10
170.488004
20
346.982257
11
169.738383
21
345.172276
0
LINE
8
0
10
169.738383
20
345.172276
11
168.549077
21
343.615510
0
LINE
8
0
10
168.549077
20
343.615510
11
166.971029
21
342.400417
0
LINE
8
0
10
166.971029
20
342.400417
11
165.130527
21
341.639337
0
LINE
8
0
10
165.130527
20
341.639337
11
163.187950
21
341.385644
0
LINE
8
0
10
163.187950
20
341.385644
11
161.245373
21
341.639337
0
LINE
8
0
10
161.245373
20
341.639337
11
159.404871
21
342.400417
0
LINE
8
0
10
159.404871
20
342.400417
11
157.826823
21
343.615510
0
LINE
8
0
10
157.826823
20
343.615510
11
156.637517
21
345.172276
0
LINE
8
0
10
156.637517
20
345.172276
11
155.887896
21
346.982257
0
LINE
8
0
10
155.887896
20
346.982257
11
155.628900
21
348.957000
0
LINE
8
0
10
155.628900
20
348.957000
11
155.887896
21
350.931743
0
LINE
8
0
10
155.887896
20
350.931743
11
156.637517
21
352.741724
0
LINE
8
0
10
156.637517
20
352.741724
11
157.826823
21
354.298490
0
LINE
8
0
10
157.826823
20
354.298490
11
159.404871
21
355.513583
0
LINE
8
0
10
159.404871
20
355.513583
11
161.245373
21
356.274663
0
LINE
8
0
10
161.245373
20
356.274663
11
163.187950
21
356.528356
0
LINE
8
0
10
163.187950
20
356.528356
11
165.130527
21
356.274663
0
LINE
8
0
10
165.130527
20
356.274663
11
166.971029
21
355.513583
0
LINE
8
0
10
166.971029
20
355.513583
11
168.549077
21
354.298490
0
LINE
8
0
10
168.549077
20
354.298490
11
169.738383
21
352.741724
0
LINE
8
0
10
169.738383
20
352.741724
11
170.488004
21
350.931743
0
LINE
8
0
10
170.488004
20
350.931743
11
170.747000
21
348.957000
0
LINE
8
0
10
170.747000
20
348.957000
11
170.747000
21
348.957000
0
LINE
8
0
10
282.242000
20
282.815000
11
146.179000
21
282.815000
0
LINE
8
0
10
146.179000
20
282.815000
11
146.179000
21
365.964600
0
LINE
8
0
10
146.179000
20
365.964600
11
282.242000
21
365.964600
0
LINE
8
0
10
282.242000
20
365.964600
11
282.242000
21
282.815000
0
LINE
8
0
10
408.857000
20
299.823000
11
408.595340
21
297.850710
0
LINE
8
0
10
408.595340
20
297.850710
11
407.844279
21
296.043475
0
LINE
8
0
10
407.844279
20
296.043475
11
406.654698
21
294.489420
0
LINE
8
0
10
406.654698
20
294.489420
11
405.077475
21
293.276671
0
LINE
8
0
10
405.077475
20
293.276671
11
403.238592
21
292.517130
0
LINE
8
0
10
403.238592
20
292.517130
11
401.297950
21
292.263950
0
LINE
8
0
10
401.297950
20
292.263950
11
399.357308
21
292.517130
0
LINE
8
0
10
399.357308
20
292.517130
11
397.518425
21
293.276671
0
LINE
8
0
10
397.518425
20
293.276671
11
395.941202
21
294.489420
0
LINE
8
0
10
395.941202
20
294.489420
11
394.751621
21
296.043475
0
LINE
8
0
10
394.751621
20
296.043475
11
394.000560
21
297.850710
0
LINE
8
0
10
394.000560
20
297.850710
11
393.738900
21
299.823000
0
LINE
8
0
10
393.738900
20
299.823000
11
394.000560
21
301.795290
0
LINE
8
0
10
394.000560
20
301.795290
11
394.751621
21
303.602525
0
LINE
8
0
10
394.751621
20
303.602525
11
395.941202
21
305.156580
0
LINE
8
0
10
395.941202
20
305.156580
11
397.518425
21
306.369329
0
LINE
8
0
10
397.518425
20
306.369329
11
399.357308
21
307.128870
0
LINE
8
0
10
399.357308
20
307.128870
11
401.297950
21
307.382050
0
LINE
8
0
10
401.297950
20
307.382050
11
403.238592
21
307.128870
0
LINE
8
0
10
403.238592
20
307.128870
11
405.077475
21
306.369329
0
LINE
8
0
10
405.077475
20
306.369329
11
406.654698
21
305.156580
0
LINE
8
0
10
406.654698
20
305.156580
11
407.844279
21
303.602525
0
LINE
8
0
10
407.844279
20
303.602525
11
408.595340
21
301.795290
0
LINE
8
0
10
408.595340
20
301.795290
11
408.857000
21
299.823000
0
LINE
8
0
10
408.857000
20
299.823000
11
408.857000
21
299.823000
0
LINE
8
0
10
408.857000
20
348.957000
11
408.595340
21
346.984710
0
LINE
8
0
10
408.595340
20
346.984710
11
407.844279
21
345.177475
0
LINE
8
0
10
407.844279
20
345.177475
11
406.654698
21
343.623420
0
LINE
8
0
10
406.654698
20
343.623420
11
405.077475
21
342.410671
0
LINE
8
0
10
405.077475
20
342.410671
11
403.238592
21
341.651130
0
LINE
8
0
10
403.238592
20
341.651130
11
401.297950
21
341.397950
0
LINE
8
0
10
401.297950
20
341.397950
11
399.357308
21
341.651130
0
LINE
8
0
10
399.357308
20
341.651130
11
397.518425
21
342.410671
0
LINE
8
0
10
397.518425
20
342.410671
11
395.941202
21
343.623420
0
LINE
8
0
10
395.941202
20
343.623420
11
394.751621
21
345.177475
0
LINE
8
0
10
394.751621
20
345.177475
11
394.000560
21
346.984710
0
LINE
8
0
10
394.000560
20
346.984710
11
393.738900
21
348.957000
0
LINE
8
0
10
393.738900
20
348.957000
11
394.000560
21
350.929290
0
LINE
8
0
10
394.000560
20
350.929290
11
394.751621
21
352.736525
0
LINE
8
0
10
394.751621
20
352.736525
11
395.941202
21
354.290580
0
LINE
8
0
10
395.941202
20
354.290580
11
397.518425
21
355.503329
0
LINE
8
0
10
397.518425
20
355.503329
11
399.357308
21
356.262870
0
LINE
8
0
10
399.357308
20
356.262870
11
401.297950
21
356.516050
0
LINE
8
0
10
401.297950
20
356.516050
11
403.238592
21
356.262870
0
LINE
8
0
10
403.238592
20
356.262870
11
405.077475
21
355.503329
0
LINE
8
0
10
405.077475
20
355.503329
11
406.654698
21
354.290580
0
LINE
8
0
10
406.654698
20
354.290580
11
407.844279
21
352.736525
0
LINE
8
0
10
407.844279
20
352.736525
11
408.595340
21
350.929290
0
LINE
8
0
10
408.595340
20
350.929290
11
408.857000
21
348.957000
0
LINE
8
0
10
408.857000
20
348.957000
11
408.857000
21
348.957000
0
LINE
8
0
10
306.810000
20
299.823000
11
306.551004
21
297.848257
0
LINE
8
0
10
306.551004
20
297.848257
11
305.801383
21
296.038276
0
LINE
8
0
10
305.801383
20
296.038276
11
304.612077
21
294.481510
0
LINE
8
0
10
304.612077
20
294.481510
11
303.034029
21
293.266417
0
LINE
8
0
10
303.034029
20
293.266417
11
301.193527
21
292.505337
0
LINE
8
0
10
301.193527
20
292.505337
11
299.250950
21
292.251644
0
LINE
8
0
10
299.250950
20
292.251644
11
297.308373
21
292.505337
0
LINE
8
0
10
297.308373
20
292.505337
11
295.467871
21
293.266417
0
LINE
8
0
10
295.467871
20
293.266417
11
293.889823
21
294.481510
0
LINE
8
0
10
293.889823
20
294.481510
11
292.700517
21
296.038276
0
LINE
8
0
10
292.700517
20
296.038276
11
291.950896
21
297.848257
0
LINE
8
0
10
291.950896
20
297.848257
11
291.691900
21
299.823000
0
LINE
8
0
10
291.691900
20
299.823000
11
291.950896
21
301.797743
0
LINE
8
0
10
291.950896
20
301.797743
11
292.700517
21
303.607724
0
LINE
8
0
10
292.700517
20
303.607724
11
293.889823
21
305.164490
0
LINE
8
0
10
293.889823
20
305.164490
11
295.467871
21
306.379583
0
LINE
8
0
10
295.467871
20
306.379583
11
297.308373
21
307.140663
0
LINE
8
0
10
297.308373
20
307.140663
11
299.250950
21
307.394356
0
LINE
8
0
10
299.250950
20
307.394356
11
301.193527
21
307.140663
0
LINE
8
0
10
301.193527
20
307.140663
11
303.034029
21
306.379583
0
LINE
8
0
10
303.034029
20
306.379583
11
304.612077
21
305.164490
0
LINE
8
0
10
304.612077
20
305.164490
11
305.801383
21
303.607724
0
LINE
8
0
10
305.801383
20
303.607724
11
306.551004
21
301.797743
0
LINE
8
0
10
306.551004
20
301.797743
11
306.810000
21
299.823000
0
LINE
8
0
10
306.810000
20
299.823000
11
306.810000
21
299.823000
0
LINE
8
0
10
306.810000
20
348.957000
11
306.551004
21
346.982257
0
LINE
8
0
10
306.551004
20
346.982257
11
305.801383
21
345.172276
0
LINE
8
0
10
305.801383
20
345.172276
11
304.612077
21
343.615510
0
LINE
8
0
10
304.612077
20
343.615510
11
303.034029
21
342.400417
0
LINE
8
0
10
303.034029
20
342.400417
11
301.193527
21
341.639337
0
LINE
8
0
10
301.193527
20
341.639337
11
299.250950
21
341.385644
0
LINE
8
0
10
299.250950
20
341.385644
11
297.308373
21
341.639337
0
LINE
8
0
10
297.308373
20
341.639337
11
295.467871
21
342.400417
0
LINE
8
0
10
295.467871
20
342.400417
11
293.889823
21
343.615510
0
LINE
8
0
10
293.889823
20
343.615510
11
292.700517
21
345.172276
0
LINE
8
0
10
292.700517
20
345.172276
11
291.950896
21
346.982257
0
LINE
8
0
10
291.950896
20
346.982257
11
291.691900
21
348.957000
0
LINE
8
0
10
291.691900
20
348.957000
11
291.950896
21
350.931743
0
LINE
8
0
10
291.950896
20
350.931743
11
292.700517
21
352.741724
0
LINE
8
0
10
292.700517
20
352.741724
11
293.889823
21
354.298490
0
LINE
8
0
10
293.889823
20
354.298490
11
295.467871
21
355.513583
0
LINE
8
0
10
295.467871
20
355.513583
11
297.308373
21
356.274663
0
LINE
8
0
10
297.308373
20
356.274663
11
299.250950
21
356.528356
0
LINE
8
0
10
299.250950
20
356.528356
11
301.193527
21
356.274663
0
LINE
8
0
10
301.193527
20
356.274663
11
303.034029
21
355.513583
0
LINE
8
0
10
303.034029
20
355.513583
11
304.612077
21
354.298490
0
LINE
8
0
10
304.612077
20
354.298490
11
305.801383
21
352.741724
0
LINE
8
0
10
305.801383
20
352.741724
11
306.551004
21
350.931743
0
LINE
8
0
10
306.551004
20
350.931743
11
306.810000
21
348.957000
0
LINE
8
0
10
306.810000
20
348.957000
11
306.810000
21
348.957000
0
LINE
8
0
10
418.305000
20
282.815000
11
282.242000
21
282.815000
0
LINE
8
0
10
282.242000
20
282.815000
11
282.242000
21
365.964600
0
LINE
8
0
10
282.242000
20
365.964600
11
418.305000
21
365.964600
0
LINE
8
0
10
418.305000
20
365.964600
11
418.305000
21
282.815000
0
LINE
8
0
10
136.731000
20
382.973000
11
136.469340
21
381.000710
0
LINE
8
0
10
136.469340
20
381.000710
11
135.718279
21
379.193475
0
LINE
8
0
10
135.718279
20
379.193475
11
134.528698
21
377.639420
0
LINE
8
0
10
134.528698
20
377.639420
11
132.951475
21
376.426671
0
LINE
8
0
10
132.951475
20
376.426671
11
131.112592
21
375.667130
0
LINE
8
0
10
131.112592
20
375.667130
11
129.171950
21
375.413950
0
LINE
8
0
10
129.171950
20
375.413950
11
127.231308
21
375.667130
0
LINE
8
0
10
127.231308
20
375.667130
11
125.392425
21
376.426671
0
LINE
8
0
10
125.392425
20
376.426671
11
123.815202
21
377.639420
0
LINE
8
0
10
123.815202
20
377.639420
11
122.625621
21
379.193475
0
LINE
8
0
10
122.625621
20
379.193475
11
121.874560
21
381.000710
0
LINE
8
0
10
121.874560
20
381.000710
11
121.612900
21
382.973000
0
LINE
8
0
10
121.612900
20
382.973000
11
121.874560
21
384.945290
0
LINE
8
0
10
121.874560
20
384.945290
11
122.625621
21
386.752525
0
LINE
8
0
10
122.625621
20
386.752525
11
123.815202
21
388.306580
0
LINE
8
0
10
123.815202
20
388.306580
11
125.392425
21
389.519329
0
LINE
8
0
10
125.392425
20
389.519329
11
127.231308
21
390.278870
0
LINE
8
0
10
127.231308
20
390.278870
11
129.171950
21
390.532050
0
LINE
8
0
10
129.171950
20
390.532050
11
131.112592
21
390.278870
0
LINE
8
0
10
131.112592
20
390.278870
11
132.951475
21
389.519329
0
LINE
8
0
10
132.951475
20
389.519329
11
134.528698
21
388.306580
0
LINE
8
0
10
134.528698
20
388.306580
11
135.718279
21
386.752525
0
LINE
8
0
10
135.718279
20
386.752525
11
136.469340
21
384.945290
0
LINE
8
0
10
136.469340
20
384.945290
11
136.731000
21
382.973000
0
LINE
8
0
10
136.731000
20
382.973000
11
136.731000
21
382.973000
0
LINE
8
0
10
136.731000
20
432.107000
11
136.469340
21
430.134710
0
LINE
8
0
10
136.469340
20
430.134710
11
135.718279
21
428.327475
0
LINE
8
0
10
135.718279
20
428.327475
11
134.528698
21
426.773420
0
LINE
8
0
10
134.528698
20
426.773420
11
132.951475
21
425.560671
0
LINE
8
0
10
132.951475
20
425.560671
11
131.112592
21
424.801130
0
LINE
8
0
10
131.112592
20
424.801130
11
129.171950
21
424.547950
0
LINE
8
0
10
129.171950
20
424.547950
11
127.231308
21
424.801130
0
LINE
8
0
10
127.231308
20
424.801130
11
125.392425
21
425.560671
0
LINE
8
0
10
125.392425
20
425.560671
11
123.815202
21
426.773420
0
LINE
8
0
10
123.815202
20
426.773420
11
122.625621
21
428.327475
0
LINE
8
0
10
122.625621
20
428.327475
11
121.874560
21
430.134710
0
LINE
8
0
10
121.874560
20
430.134710
11
121.612900
21
432.107000
0
LINE
8
0
10
121.612900
20
432.107000
11
121.874560
21
434.079290
0
LINE
8
0
10
121.874560
20
434.079290
11
122.625621
21
435.886525
0
LINE
8
0
10
122.625621
20
435.886525
11
123.815202
21
437.440580
0
LINE
8
0
10
123.815202
20
437.440580
11
125.392425
21
438.653329
0
LINE
8
0
10
125.392425
20
438.653329
11
127.231308
21
439.412870
0
LINE
8
0
10
127.231308
20
439.412870
11
129.171950
21
439.666050
0
LINE
8
0
10
129.171950
20
439.666050
11
131.112592
21
439.412870
0
LINE
8
0
10
131.112592
20
439.412870
11
132.951475
21
438.653329
0
LINE
8
0
10
132.951475
20
438.653329
11
134.528698
21
437.440580
0
LINE
8
0
10
134.528698
20
437.440580
11
135.718279
21
435.886525
0
LINE
8
0
10
135.718279
20
435.886525
11
136.469340
21
434.079290
0
LINE
8
0
10
136.469340
20
434.079290
11
136.731000
21
432.107000
0
LINE
8
0
10
136.731000
20
432.107000
11
136.731000
21
432.107000
0
LINE
8
0
10
34.683800
20
382.973000
11
34.424804
21
380.998257
0
LINE
8
0
10
34.424804
20
380.998257
11
33.675183
21
379.188276
0
LINE
8
0
10
33.675183
20
379.188276
11
32.485877
21
377.631510
0
LINE
8
0
10
32.485877
20
377.631510
11
30.907829
21
376.416417
0
LINE
8
0
10
30.907829
20
376.416417
11
29.067327
21
375.655337
0
LINE
8
0
10
29.067327
20
375.655337
11
27.124750
21
375.401644
0
LINE
8
0
10
27.124750
20
375.401644
11
25.182173
21
375.655337
0
LINE
8
0
10
25.182173
20
375.655337
11
23.341671
21
376.416417
0
LINE
8
0
10
23.341671
20
376.416417
11
21.763623
21
377.631510
0
LINE
8
0
10
21.763623
20
377.631510
11
20.574317
21
379.188276
0
LINE
8
0
10
20.574317
20
379.188276
11
19.824696
21
380.998257
0
LINE
8
0
10
19.824696
20
380.998257
11
19.565700
21
382.973000
0
LINE
8
0
10
19.565700
20
382.973000
11
19.824696
21
384.947743
0
LINE
8
0
10
19.824696
20
384.947743
11
20.574317
21
386.757724
0
LINE
8
0
10
20.574317
20
386.757724
11
21.763623
21
388.314490
0
LINE
8
0
10
21.763623
20
388.314490
11
23.341671
21
389.529583
0
LINE
8
0
10
23.341671
20
389.529583
11
25.182173
21
390.290663
0
LINE
8
0
10
25.182173
20
390.290663
11
27.124750
21
390.544356
0
LINE
8
0
10
27.124750
20
390.544356
11
29.067327
21
390.290663
0
LINE
8
0
10
29.067327
20
390.290663
11
30.907829
21
389.529583
0
LINE
8
0
10
30.907829
20
389.529583
11
32.485877
21
388.314490
0
LINE
8
0
10
32.485877
20
388.314490
11
33.675183
21
386.757724
0
LINE
8
0
10
33.675183
20
386.757724
11
34.424804
21
384.947743
0
LINE
8
0
10
34.424804
20
384.947743
11
34.683800
21
382.973000
0
LINE
8
0
10
34.683800
20
382.973000
11
34.683800
21
382.973000
0
LINE
8
0
10
34.683800
20
432.107000
11
34.424804
21
430.132257
0
LINE
8
0
10
34.424804
20
430.132257
11
33.675183
21
428.322276
0
LINE
8
0
10
33.675183
20
428.322276
11
32.485877
21
426.765510
0
LINE
8
0
10
32.485877
20
426.765510
11
30.907829
21
425.550417
0
LINE
8
0
10
30.907829
20
425.550417
11
29.067327
21
424.789337
0
LINE
8
0
10
29.067327
20
424.789337
11
27.124750
21
424.535644
0
LINE
8
0
10
27.124750
20
424.535644
11
25.182173
21
424.789337
0
LINE
8
0
10
25.182173
20
424.789337
11
23.341671
21
425.550417
0
LINE
8
0
10
23.341671
20
425.550417
11
21.763623
21
426.765510
0
LINE
8
0
10
21.763623
20
426.765510
11
20.574317
21
428.322276
0
LINE
8
0
10
20.574317
20
428.322276
11
19.824696
21
430.132257
0
LINE
8
0
10
19.824696
20
430.132257
11
19.565700
21
432.107000
0
LINE
8
0
10
19.565700
20
432.107000
11
19.824696
21
434.081743
0
LINE
8
0
10
19.824696
20
434.081743
11
20.574317
21
435.891724
0
LINE
8
0
10
20.574317
20
435.891724
11
21.763623
21
437.448490
0
LINE
8
0
10
21.763623
20
437.448490
11
23.341671
21
438.663583
0
LINE
8
0
10
23.341671
20
438.663583
11
25.182173
21
439.424663
0
LINE
8
0
10
25.182173
20
439.424663
11
27.124750
21
439.678356
0
LINE
8
0
10
27.124750
20
439.678356
11
29.067327
21
439.424663
0
LINE
8
0
10
29.067327
20
439.424663
11
30.907829
21
438.663583
0
LINE
8
0
10
30.907829
20
438.663583
11
32.485877
21
437.448490
0
LINE
8
0
10
32.485877
20
437.448490
11
33.675183
21
435.891724
0
LINE
8
0
10
33.675183
20
435.891724
11
34.424804
21
434.081743
0
LINE
8
0
10
34.424804
20
434.081743
11
34.683800
21
432.107000
0
LINE
8
0
10
34.683800
20
432.107000
11
34.683800
21
432.107000
0
LINE
8
0
10
146.179000
20
365.964000
11
10.115900
21
365.964000
0
LINE
8
0
10
10.115900
20
365.964000
11
10.115900
21
449.113600
0
LINE
8
0
10
10.115900
20
449.113600
11
146.179000
21
449.113600
0
LINE
8
0
10
146.179000
20
449.113600
11
146.179000
21
365.964000
0
LINE
8
0
10
272.794000
20
382.973000
11
272.532340
21
381.000710
0
LINE
8
0
10
272.532340
20
381.000710
11
271.781279
21
379.193475
0
LINE
8
0
10
271.781279
20
379.193475
11
270.591698
21
377.639420
0
LINE
8
0
10
270.591698
20
377.639420
11
269.014475
21
376.426671
0
LINE
8
0
10
269.014475
20
376.426671
11
267.175592
21
375.667130
0
LINE
8
0
10
267.175592
20
375.667130
11
265.234950
21
375.413950
0
LINE
8
0
10
265.234950
20
375.413950
11
263.294308
21
375.667130
0
LINE
8
0
10
263.294308
20
375.667130
11
261.455425
21
376.426671
0
LINE
8
0
10
261.455425
20
376.426671
11
259.878202
21
377.639420
0
LINE
8
0
10
259.878202
20
377.639420
11
258.688621
21
379.193475
0
LINE
8
0
10
258.688621
20
379.193475
11
257.937560
21
381.000710
0
LINE
8
0
10
257.937560
20
381.000710
11
257.675900
21
382.973000
0
LINE
8
0
10
257.675900
20
382.973000
11
257.937560
21
384.945290
0
LINE
8
0
10
257.937560
20
384.945290
11
258.688621
21
386.752525
0
LINE
8
0
10
258.688621
20
386.752525
11
259.878202
21
388.306580
0
LINE
8
0
10
259.878202
20
388.306580
11
261.455425
21
389.519329
0
LINE
8
0
10
261.455425
20
389.519329
11
263.294308
21
390.278870
0
LINE
8
0
10
263.294308
20
390.278870
11
265.234950
21
390.532050
0
LINE
8
0
10
265.234950
20
390.532050
11
267.175592
21
390.278870
0
LINE
8
0
10
267.175592
20
390.278870
11
269.014475
21
389.519329
0
LINE
8
0
10
269.014475
20
389.519329
11
270.591698
21
388.306580
0
LINE
8
0
10
270.591698
20
388.306580
11
271.781279
21
386.752525
0
LINE
8
0
10
271.781279
20
386.752525
11
272.532340
21
384.945290
0
LINE
8
0
10
272.532340
20
384.945290
11
272.794000
21
382.973000
0
LINE
8
0
10
272.794000
20
382.973000
11
272.794000
21
382.973000
0
LINE
8
0
10
272.794000
20
432.107000
11
272.532340
21
430.134710
0
LINE
8
0
10
272.532340
20
430.134710
11
271.781279
21
428.327475
0
LINE
8
0
10
271.781279
20
428.327475
11
270.591698
21
426.773420
0
LINE
8
0
10
270.591698
20
426.773420
11
269.014475
21
425.560671
0
LINE
8
0
10
269.014475
20
425.560671
11
267.175592
21
424.801130
0
LINE
8
0
10
267.175592
20
424.801130
11
265.234950
21
424.547950
0
LINE
8
0
10
265.234950
20
424.547950
11
263.294308
21
424.801130
0
LINE
8
0
10
263.294308
20
424.801130
11
261.455425
21
425.560671
0
LINE
8
0
10
261.455425
20
425.560671
11
259.878202
21
426.773420
0
LINE
8
0
10
259.878202
20
426.773420
11
258.688621
21
428.327475
0
LINE
8
0
10
258.688621
20
428.327475
11
257.937560
21
430.134710
0
LINE
8
0
10
257.937560
20
430.134710
11
257.675900
21
432.107000
0
LINE
8
0
10
257.675900
20
432.107000
11
257.937560
21
434.079290
0
LINE
8
0
10
257.937560
20
434.079290
11
258.688621
21
435.886525
0
LINE
8
0
10
258.688621
20
435.886525
11
259.878202
21
437.440580
0
LINE
8
0
10
259.878202
20
437.440580
11
261.455425
21
438.653329
0
LINE
8
0
10
261.455425
20
438.653329
11
263.294308
21
439.412870
0
LINE
8
0
10
263.294308
20
439.412870
11
265.234950
21
439.666050
0
LINE
8
0
10
265.234950
20
439.666050
11
267.175592
21
439.412870
0
LINE
8
0
10
267.175592
20
439.412870
11
269.014475
21
438.653329
0
LINE
8
0
10
269.014475
20
438.653329
11
270.591698
21
437.440580
0
LINE
8
0
10
270.591698
20
437.440580
11
271.781279
21
435.886525
0
LINE
8
0
10
271.781279
20
435.886525
11
272.532340
21
434.079290
0
LINE
8
0
10
272.532340
20
434.079290
11
272.794000
21
432.107000
0
LINE
8
0
10
272.794000
20
432.107000
11
272.794000
21
432.107000
0
LINE
8
0
10
170.747000
20
382.973000
11
170.488004
21
380.998257
0
LINE
8
0
10
170.488004
20
380.998257
11
169.738383
21
379.188276
0
LINE
8
0
10
169.738383
20
379.188276
11
168.549077
21
377.631510
0
LINE
8
0
10
168.549077
20
377.631510
11
166.971029
21
376.416417
0
LINE
8
0
10
166.971029
20
376.416417
11
165.130527
21
375.655337
0
LINE
8
0
10
165.130527
20
375.655337
11
163.187950
21
375.401644
0
LINE
8
0
10
163.187950
20
375.401644
11
161.245373
21
375.655337
0
LINE
8
0
10
161.245373
20
375.655337
11
159.404871
21
376.416417
0
LINE
8
0
10
159.404871
20
376.416417
11
157.826823
21
377.631510
0
LINE
8
0
10
157.826823
20
377.631510
11
156.637517
21
379.188276
0
LINE
8
0
10
156.637517
20
379.188276
11
155.887896
21
380.998257
0
LINE
8
0
10
155.887896
20
380.998257
11
155.628900
21
382.973000
0
LINE
8
0
10
155.628900
20
382.973000
11
155.887896
21
384.947743
0
LINE
8
0
10
155.887896
20
384.947743
11
156.637517
21
386.757724
0
LINE
8
0
10
156.637517
20
386.757724
11
157.826823
21
388.314490
0
LINE
8
0
10
157.826823
20
388.314490
11
159.404871
21
389.529583
0
LINE
8
0
10
159.404871
20
389.529583
11
161.245373
21
390.290663
0
LINE
8
0
10
161.245373
20
390.290663
11
163.187950
21
390.544356
0
LINE
8
0
10
163.187950
20
390.544356
11
165.130527
21
390.290663
0
LINE
8
0
10
165.130527
20
390.290663
11
166.971029
21
389.529583
0
LINE
8
0
10
166.971029
20
389.529583
11
168.549077
21
388.314490
0
LINE
8
0
10
168.549077
20
388.314490
11
169.738383
21
386.757724
0
LINE
8
0
10
169.738383
20
386.757724
11
170.488004
21
384.947743
0
LINE
8
0
10
170.488004
20
384.947743
11
170.747000
21
382.973000
0
LINE
8
0
10
170.747000
20
382.973000
11
170.747000
21
382.973000
0
LINE
8
0
10
170.747000
20
432.107000
11
170.488004
21
430.132257
0
LINE
8
0
10
170.488004
20
430.132257
11
169.738383
21
428.322276
0
LINE
8
0
10
169.738383
20
428.322276
11
168.549077
21
426.765510
0
LINE
8
0
10
168.549077
20
426.765510
11
166.971029
21
425.550417
0
LINE
8
0
10
166.971029
20
425.550417
11
165.130527
21
424.789337
0
LINE
8
0
10
165.130527
20
424.789337
11
163.187950
21
424.535644
0
LINE
8
0
10
163.187950
20
424.535644
11
161.245373
21
424.789337
0
LINE
8
0
10
161.245373
20
424.789337
11
159.404871
21
425.550417
0
LINE
8
0
10
159.404871
20
425.550417
11
157.826823
21
426.765510
0
LINE
8
0
10
157.826823
20
426.765510
11
156.637517
21
428.322276
0
LINE
8
0
10
156.637517
20
428.322276
11
155.887896
21
430.132257
0
LINE
8
0
10
155.887896
20
430.132257
11
155.628900
21
432.107000
0
LINE
8
0
10
155.628900
20
432.107000
11
155.887896
21
434.081743
0
LINE
8
0
10
155.887896
20
434.081743
11
156.637517
21
435.891724
0
LINE
8
0
10
156.637517
20
435.891724
11
157.826823
21
437.448490
0
LINE
8
0
10
157.826823
20
437.448490
11
159.404871
21
438.663583
0
LINE
8
0
10
159.404871
20
438.663583
11
161.245373
21
439.424663
0
LINE
8
0
10
161.245373
20
439.424663
11
163.187950
21
439.678356
0
LINE
8
0
10
163.187950
20
439.678356
11
165.130527
21
439.424663
0
LINE
8
0
10
165.130527
20
439.424663
11
166.971029
21
438.663583
0
LINE
8
0
10
166.971029
20
438.663583
11
168.549077
21
437.448490
0
LINE
8
0
10
168.549077
20
437.448490
11
169.738383
21
435.891724
0
LINE
8
0
10
169.738383
20
435.891724
11
170.488004
21
434.081743
0
LINE
8
0
10
170.488004
20
434.081743
11
170.747000
21
432.107000
0
LINE
8
0
10
170.747000
20
432.107000
11
170.747000
21
432.107000
0
LINE
8
0
10
282.242000
20
365.964000
11
146.179000
21
365.964000
0
LINE
8
0
10
146.179000
20
365.964000
11
146.179000
21
449.113600
0
LINE
8
0
10
146.179000
20
449.113600
11
282.242000
21
449.113600
0
LINE
8
0
10
282.242000
20
449.113600
11
282.242000
21
365.964000
0
LINE
8
0
10
408.857000
20
382.973000
11
408.595340
21
381.000710
0
LINE
8
0
10
408.595340
20
381.000710
11
407.844279
21
379.193475
0
LINE
8
0
10
407.844279
20
379.193475
11
406.654698
21
377.639420
0
LINE
8
0
10
406.654698
20
377.639420
11
405.077475
21
376.426671
0
LINE
8
0
10
405.077475
20
376.426671
11
403.238592
21
375.667130
0
LINE
8
0
10
403.238592
20
375.667130
11
401.297950
21
375.413950
0
LINE
8
0
10
401.297950
20
375.413950
11
399.357308
21
375.667130
0
LINE
8
0
10
399.357308
20
375.667130
11
397.518425
21
376.426671
0
LINE
8
0
10
397.518425
20
376.426671
11
395.941202
21
377.639420
0
LINE
8
0
10
395.941202
20
377.639420
11
394.751621
21
379.193475
0
LINE
8
0
10
394.751621
20
379.193475
11
394.000560
21
381.000710
0
LINE
8
0
10
394.000560
20
381.000710
11
393.738900
21
382.973000
0
LINE
8
0
10
393.738900
20
382.973000
11
394.000560
21
384.945290
0
LINE
8
0
10
394.000560
20
384.945290
11
394.751621
21
386.752525
0
LINE
8
0
10
394.751621
20
386.752525
11
395.941202
21
388.306580
0
LINE
8
0
10
395.941202
20
388.306580
11
397.518425
21
389.519329
0
LINE
8
0
10
397.518425
20
389.519329
11
399.357308
21
390.278870
0
LINE
8
0
10
399.357308
20
390.278870
11
401.297950
21
390.532050
0
LINE
8
0
10
401.297950
20
390.532050
11
403.238592
21
390.278870
0
LINE
8
0
10
403.238592
20
390.278870
11
405.077475
21
389.519329
0
LINE
8
0
10
405.077475
20
389.519329
11
406.654698
21
388.306580
0
LINE
8
0
10
406.654698
20
388.306580
11
407.844279
21
386.752525
0
LINE
8
0
10
407.844279
20
386.752525
11
408.595340
21
384.945290
0
LINE
8
0
10
408.595340
20
384.945290
11
408.857000
21
382.973000
0
LINE
8
0
10
408.857000
20
382.973000
11
408.857000
21
382.973000
0
LINE
8
0
10
408.857000
20
432.107000
11
408.595340
21
430.134710
0
LINE
8
0
10
408.595340
20
430.134710
11
407.844279
21
428.327475
0
LINE
8
0
10
407.844279
20
428.327475
11
406.654698
21
426.773420
0
LINE
8
0
10
406.654698
20
426.773420
11
405.077475
21
425.560671
0
LINE
8
0
10
405.077475
20
425.560671
11
403.238592
21
424.801130
0
LINE
8
0
10
403.238592
20
424.801130
11
401.297950
21
424.547950
0
LINE
8
0
10
401.297950
20
424.547950
11
399.357308
21
424.801130
0
LINE
8
0
10
399.357308
20
424.801130
11
397.518425
21
425.560671
0
LINE
8
0
10
397.518425
20
425.560671
11
395.941202
21
426.773420
0
LINE
8
0
10
395.941202
20
426.773420
11
394.751621
21
428.327475
0
LINE
8
0
10
394.751621
20
428.327475
11
394.000560
21
430.134710
0
LINE
8
0
10
394.000560
20
430.134710
11
393.738900
21
432.107000
0
LINE
8
0
10
393.738900
20
432.107000
11
394.000560
21
434.079290
0
LINE
8
0
10
394.000560
20
434.079290
11
394.751621
21
435.886525
0
LINE
8
0
10
394.751621
20
435.886525
11
395.941202
21
437.440580
0
LINE
8
0
10
395.941202
20
437.440580
11
397.518425
21
438.653329
0
LINE
8
0
10
397.518425
20
438.653329
11
399.357308
21
439.412870
0
LINE
8
0
10
399.357308
20
439.412870
11
401.297950
21
439.666050
0
LINE
8
0
10
401.297950
20
439.666050
11
403.238592
21
439.412870
0
LINE
8
0
10
403.238592
20
439.412870
11
405.077475
21
438.653329
0
LINE
8
0
10
405.077475
20
438.653329
11
406.654698
21
437.440580
0
LINE
8
0
10
406.654698
20
437.440580
11
407.844279
21
435.886525
0
LINE
8
0
10
407.844279
20
435.886525
11
408.595340
21
434.079290
0
LINE
8
0
10
408.595340
20
434.079290
11
408.857000
21
432.107000
0
LINE
8
0
10
408.857000
20
432.107000
11
408.857000
21
432.107000
0
LINE
8
0
10
306.810000
20
382.973000
11
306.551004
21
380.998257
0
LINE
8
0
10
306.551004
20
380.998257
11
305.801383
21
379.188276
0
LINE
8
0
10
305.801383
20
379.188276
11
304.612077
21
377.631510
0
LINE
8
0
10
304.612077
20
377.631510
11
303.034029
21
376.416417
0
LINE
8
0
10
303.034029
20
376.416417
11
301.193527
21
375.655337
0
LINE
8
0
10
301.193527
20
375.655337
11
299.250950
21
375.401644
0
LINE
8
0
10
299.250950
20
375.401644
11
297.308373
21
375.655337
0
LINE
8
0
10
297.308373
20
375.655337
11
295.467871
21
376.416417
0
LINE
8
0
10
295.467871
20
376.416417
11
293.889823
21
377.631510
0
LINE
8
0
10
293.889823
20
377.631510
11
292.700517
21
379.188276
0
LINE
8
0
10
292.700517
20
379.188276
11
291.950896
21
380.998257
0
LINE
8
0
10
291.950896
20
380.998257
11
291.691900
21
382.973000
0
LINE
8
0
10
291.691900
20
382.973000
11
291.950896
21
384.947743
0
LINE
8
0
10
291.950896
20
384.947743
11
292.700517
21
386.757724
0
LINE
8
0
10
292.700517
20
386.757724
11
293.889823
21
388.314490
0
LINE
8
0
10
293.889823
20
388.314490
11
295.467871
21
389.529583
0
LINE
8
0
10
295.467871
20
389.529583
11
297.308373
21
390.290663
0
LINE
8
0
10
297.308373
20
390.290663
11
299.250950
21
390.544356
0
LINE
8
0
10
299.250950
20
390.544356
11
301.193527
21
390.290663
0
LINE
8
0
10
301.193527
20
390.290663
11
303.034029
21
389.529583
0
LINE
8
0
10
303.034029
20
389.529583
11
304.612077
21
388.314490
0
LINE
8
0
10
304.612077
20
388.314490
11
305.801383
21
386.757724
0
LINE
8
0
10
305.801383
20
386.757724
11
306.551004
21
384.947743
0
LINE
8
0
10
306.551004
20
384.947743
11
306.810000
21
382.973000
0
LINE
8
0
10
306.810000
20
382.973000
11
306.810000
21
382.973000
0
LINE
8
0
10
306.810000
20
432.107000
11
306.551004
21
430.132257
0
LINE
8
0
10
306.551004
20
430.132257
11
305.801383
21
428.322276
0
LINE
8
0
10
305.801383
20
428.322276
11
304.612077
21
426.765510
0
LINE
8
0
10
304.612077
20
426.765510
11
303.034029
21
425.550417
0
LINE
8
0
10
303.034029
20
425.550417
11
301.193527
21
424.789337
0
LINE
8
0
10
301.193527
20
424.789337
11
299.250950
21
424.535644
0
LINE
8
0
10
299.250950
20
424.535644
11
297.308373
21
424.789337
0
LINE
8
0
10
297.308373
20
424.789337
11
295.467871
21
425.550417
0
LINE
8
0
10
295.467871
20
425.550417
11
293.889823
21
426.765510
0
LINE
8
0
10
293.889823
20
426.765510
11
292.700517
21
428.322276
0
LINE
8
0
10
292.700517
20
428.322276
11
291.950896
21
430.132257
0
LINE
8
0
10
291.950896
20
430.132257
11
291.691900
21
432.107000
0
LINE
8
0
10
291.691900
20
432.107000
11
291.950896
21
434.081743
0
LINE
8
0
10
291.950896
20
434.081743
11
292.700517
21
435.891724
0
LINE
8
0
10
292.700517
20
435.891724
11
293.889823
21
437.448490
0
LINE
8
0
10
293.889823
20
437.448490
11
295.467871
21
438.663583
0
LINE
8
0
10
295.467871
20
438.663583
11
297.308373
21
439.424663
0
LINE
8
0
10
297.308373
20
439.424663
11
299.250950
21
439.678356
0
LINE
8
0
10
299.250950
20
439.678356
11
301.193527
21
439.424663
0
LINE
8
0
10
301.193527
20
439.424663
11
303.034029
21
438.663583
0
LINE
8
0
10
303.034029
20
438.663583
11
304.612077
21
437.448490
0
LINE
8
0
10
304.612077
20
437.448490
11
305.801383
21
435.891724
0
LINE
8
0
10
305.801383
20
435.891724
11
306.551004
21
434.081743
0
LINE
8
0
10
306.551004
20
434.081743
11
306.810000
21
432.107000
0
LINE
8
0
10
306.810000
20
432.107000
11
306.810000
21
432.107000
0
LINE
8
0
10
418.305000
20
365.964000
11
282.242000
21
365.964000
0
LINE
8
0
10
282.242000
20
365.964000
11
282.242000
21
449.113600
0
LINE
8
0
10
282.242000
20
449.113600
11
418.305000
21
449.113600
0
LINE
8
0
10
418.305000
20
449.113600
11
418.305000
21
365.964000
0
LINE
8
0
10
544.920000
20
50.374400
11
544.658340
21
48.402110
0
LINE
8
0
10
544.658340
20
48.402110
11
543.907279
21
46.594875
0
LINE
8
0
10
543.907279
20
46.594875
11
542.717698
21
45.040820
0
LINE
8
0
10
542.717698
20
45.040820
11
541.140475
21
43.828071
0
LINE
8
0
10
541.140475
20
43.828071
11
539.301592
21
43.068530
0
LINE
8
0
10
539.301592
20
43.068530
11
537.360950
21
42.815350
0
LINE
8
0
10
537.360950
20
42.815350
11
535.420308
21
43.068530
0
LINE
8
0
10
535.420308
20
43.068530
11
533.581425
21
43.828071
0
LINE
8
0
10
533.581425
20
43.828071
11
532.004202
21
45.040820
0
LINE
8
0
10
532.004202
20
45.040820
11
530.814621
21
46.594875
0
LINE
8
0
10
530.814621
20
46.594875
11
530.063560
21
48.402110
0
LINE
8
0
10
530.063560
20
48.402110
11
529.801900
21
50.374400
0
LINE
8
0
10
529.801900
20
50.374400
11
530.063560
21
52.346690
0
LINE
8
0
10
530.063560
20
52.346690
11
530.814621
21
54.153925
0
LINE
8
0
10
530.814621
20
54.153925
11
532.004202
21
55.707980
0
LINE
8
0
10
532.004202
20
55.707980
11
533.581425
21
56.920729
0
LINE
8
0
10
533.581425
20
56.920729
11
535.420308
21
57.680270
0
LINE
8
0
10
535.420308
20
57.680270
11
537.360950
21
57.933450
0
LINE
8
0
10
537.360950
20
57.933450
11
539.301592
21
57.680270
0
LINE
8
0
10
539.301592
20
57.680270
11
541.140475
21
56.920729
0
LINE
8
0
10
541.140475
20
56.920729
11
542.717698
21
55.707980
0
LINE
8
0
10
542.717698
20
55.707980
11
543.907279
21
54.153925
0
LINE
8
0
10
543.907279
20
54.153925
11
544.658340
21
52.346690
0
LINE
8
0
10
544.658340
20
52.346690
11
544.920000
21
50.374400
0
LINE
8
0
10
544.920000
20
50.374400
11
544.920000
21
50.374400
0
LINE
8
0
10
544.920000
20
99.508200
11
544.658340
21
97.535910
0
LINE
8
0
10
544.658340
20
97.535910
11
543.907279
21
95.728675
0
LINE
8
0
10
543.907279
20
95.728675
11
542.717698
21
94.174620
0
LINE
8
0
10
542.717698
20
94.174620
11
541.140475
21
92.961871
0
LINE
8
0
10
541.140475
20
92.961871
11
539.301592
21
92.202330
0
LINE
8
0
10
539.301592
20
92.202330
11
537.360950
21
91.949150
0
LINE
8
0
10
537.360950
20
91.949150
11
535.420308
21
92.202330
0
LINE
8
0
10
535.420308
20
92.202330
11
533.581425
21
92.961871
0
LINE
8
0
10
533.581425
20
92.961871
11
532.004202
21
94.174620
0
LINE
8
0
10
532.004202
20
94.174620
11
530.814621
21
95.728675
0
LINE
8
0
10
530.814621
20
95.728675
11
530.063560
21
97.535910
0
LINE
8
0
10
530.063560
20
97.535910
11
529.801900
21
99.508200
0
LINE
8
0
10
529.801900
20
99.508200
11
530.063560
21
101.480490
0
LINE
8
0
10
530.063560
20
101.480490
11
530.814621
21
103.287725
0
LINE
8
0
10
530.814621
20
103.287725
11
532.004202
21
104.841780
0
LINE
8
0
10
532.004202
20
104.841780
11
533.581425
21
106.054529
0
LINE
8
0
10
533.581425
20
106.054529
11
535.420308
21
106.814070
0
LINE
8
0
10
535.420308
20
106.814070
11
537.360950
21
107.067250
0
LINE
8
0
10
537.360950
20
107.067250
11
539.301592
21
106.814070
0
LINE
8
0
10
539.301592
20
106.814070
11
541.140475
21
106.054529
0
LINE
8
0
10
541.140475
20
106.054529
11
542.717698
21
104.841780
0
LINE
8
0
10
542.717698
20
104.841780
11
543.907279
21
103.287725
0
LINE
8
0
10
543.907279
20
103.287725
11
544.658340
21
101.480490
0
LINE
8
0
10
544.658340
20
101.480490
11
544.920000
21
99.508200
0
LINE
8
0
10
544.920000
20
99.508200
11
544.920000
21
99.508200
0
LINE
8
0
10
442.873000
20
50.374400
11
442.614004
21
48.399657
0
LINE
8
0
10
442.614004
20
48.399657
11
441.864383
21
46.589676
0
LINE
8
0
10
441.864383
20
46.589676
11
440.675077
21
45.032910
0
LINE
8
0
10
440.675077
20
45.032910
11
439.097029
21
43.817817
0
LINE
8
0
10
439.097029
20
43.817817
11
437.256527
21
43.056737
0
LINE
8
0
10
437.256527
20
43.056737
11
435.313950
21
42.803044
0
LINE
8
0
10
435.313950
20
42.803044
11
433.371373
21
43.056737
0
LINE
8
0
10
433.371373
20
43.056737
11
431.530871
21
43.817817
0
LINE
8
0
10
431.530871
20
43.817817
11
429.952823
21
45.032910
0
LINE
8
0
10
429.952823
20
45.032910
11
428.763517
21
46.589676
0
LINE
8
0
10
428.763517
20
46.589676
11
428.013896
21
48.399657
0
LINE
8
0
10
428.013896
20
48.399657
11
427.754900
21
50.374400
0
LINE
8
0
10
427.754900
20
50.374400
11
428.013896
21
52.349143
0
LINE
8
0
10
428.013896
20
52.349143
11
428.763517
21
54.159124
0
LINE
8
0
10
428.763517
20
54.159124
11
429.952823
21
55.715890
0
LINE
8
0
10
429.952823
20
55.715890
11
431.530871
21
56.930983
0
LINE
8
0
10
431.530871
20
56.930983
11
433.371373
21
57.692063
0
LINE
8
0
10
433.371373
20
57.692063
11
435.313950
21
57.945756
0
LINE
8
0
10
435.313950
20
57.945756
11
437.256527
21
57.692063
0
LINE
8
0
10
437.256527
20
57.692063
11
439.097029
21
56.930983
0
LINE
8
0
10
439.097029
20
56.930983
11
440.675077
21
55.715890
0
LINE
8
0
10
440.675077
20
55.715890
11
441.864383
21
54.159124
0
LINE
8
0
10
441.864383
20
54.159124
11
442.614004
21
52.349143
0
LINE
8
0
10
442.614004
20
52.349143
11
442.873000
21
50.374400
0
LINE
8
0
10
442.873000
20
50.374400
11
442.873000
21
50.374400
0
LINE
8
0
10
442.873000
20
99.508200
11
442.614004
21
97.533457
0
LINE
8
0
10
442.614004
20
97.533457
11
441.864383
21
95.723476
0
LINE
8
0
10
441.864383
20
95.723476
11
440.675077
21
94.166710
0
LINE
8
0
10
440.675077
20
94.166710
11
439.097029
21
92.951617
0
LINE
8
0
10
439.097029
20
92.951617
11
437.256527
21
92.190537
0
LINE
8
0
10
437.256527
20
92.190537
11
435.313950
21
91.936844
0
LINE
8
0
10
435.313950
20
91.936844
11
433.371373
21
92.190537
0
LINE
8
0
10
433.371373
20
92.190537
11
431.530871
21
92.951617
0
LINE
8
0
10
431.530871
20
92.951617
11
429.952823
21
94.166710
0
LINE
8
0
10
429.952823
20
94.166710
11
428.763517
21
95.723476
0
LINE
8
0
10
428.763517
20
95.723476
11
428.013896
21
97.533457
0
LINE
8
0
10
428.013896
20
97.533457
11
427.754900
21
99.508200
0
LINE
8
0
10
427.754900
20
99.508200
11
428.013896
21
101.482943
0
LINE
8
0
10
428.013896
20
101.482943
11
428.763517
21
103.292924
0
LINE
8
0
10
428.763517
20
103.292924
11
429.952823
21
104.849690
0
LINE
8
0
10
429.952823
20
104.849690
11
431.530871
21
106.064783
0
LINE
8
0
10
431.530871
20
106.064783
11
433.371373
21
106.825863
0
LINE
8
0
10
433.371373
20
106.825863
11
435.313950
21
107.079556
0
LINE
8
0
10
435.313950
20
107.079556
11
437.256527
21
106.825863
0
LINE
8
0
10
437.256527
20
106.825863
11
439.097029
21
106.064783
0
LINE
8
0
10
439.097029
20
106.064783
11
440.675077
21
104.849690
0
LINE
8
0
10
440.675077
20
104.849690
11
441.864383
21
103.292924
0
LINE
8
0
10
441.864383
20
103.292924
11
442.614004
21
101.482943
0
LINE
8
0
10
442.614004
20
101.482943
11
442.873000
21
99.508200
0
LINE
8
0
10
442.873000
20
99.508200
11
442.873000
21
99.508200
0
LINE
8
0
10
554.368000
20
33.366000
11
418.305000
21
33.366000
0
LINE
8
0
10
418.305000
20
33.366000
11
418.305000
21
116.515600
0
LINE
8
0
10
418.305000
20
116.515600
11
554.368000
21
116.515600
0
LINE
8
0
10
554.368000
20
116.515600
11
554.368000
21
33.366000
0
LINE
8
0
10
544.920000
20
133.524000
11
544.658340
21
131.551710
0
LINE
8
0
10
544.658340
20
131.551710
11
543.907279
21
129.744475
0
LINE
8
0
10
543.907279
20
129.744475
11
542.717698
21
128.190420
0
LINE
8
0
10
542.717698
20
128.190420
11
541.140475
21
126.977671
0
LINE
8
0
10
541.140475
20
126.977671
11
539.301592
21
126.218130
0
LINE
8
0
10
539.301592
20
126.218130
11
537.360950
21
125.964950
0
LINE
8
0
10
537.360950
20
125.964950
11
535.420308
21
126.218130
0
LINE
8
0
10
535.420308
20
126.218130
11
533.581425
21
126.977671
0
LINE
8
0
10
533.581425
20
126.977671
11
532.004202
21
128.190420
0
LINE
8
0
10
532.004202
20
128.190420
11
530.814621
21
129.744475
0
LINE
8
0
10
530.814621
20
129.744475
11
530.063560
21
131.551710
0
LINE
8
0
10
530.063560
20
131.551710
11
529.801900
21
133.524000
0
LINE
8
0
10
529.801900
20
133.524000
11
530.063560
21
135.496290
0
LINE
8
0
10
530.063560
20
135.496290
11
530.814621
21
137.303525
0
LINE
8
0
10
530.814621
20
137.303525
11
532.004202
21
138.857580
0
LINE
8
0
10
532.004202
20
138.857580
11
533.581425
21
140.070329
0
LINE
8
0
10
533.581425
20
140.070329
11
535.420308
21
140.829870
0
LINE
8
0
10
535.420308
20
140.829870
11
537.360950
21
141.083050
0
LINE
8
0
10
537.360950
20
141.083050
11
539.301592
21
140.829870
0
LINE
8
0
10
539.301592
20
140.829870
11
541.140475
21
140.070329
0
LINE
8
0
10
541.140475
20
140.070329
11
542.717698
21
138.857580
0
LINE
8
0
10
542.717698
20
138.857580
11
543.907279
21
137.303525
0
LINE
8
0
10
543.907279
20
137.303525
11
544.658340
21
135.496290
0
LINE
8
0
10
544.658340
20
135.496290
11
544.920000
21
133.524000
0
LINE
8
0
10
544.920000
20
133.524000
11
544.920000
21
133.524000
0
LINE
8
0
10
544.920000
20
182.658000
11
544.658340
21
180.685710
0
LINE
8
0
10
544.658340
20
180.685710
11
543.907279
21
178.878475
0
LINE
8
0
10
543.907279
20
178.878475
11
542.717698
21
177.324420
0
LINE
8
0
10
542.717698
20
177.324420
11
541.140475
21
176.111671
0
LINE
8
0
10
541.140475
20
176.111671
11
539.301592
21
175.352130
0
LINE
8
0
10
539.301592
20
175.352130
11
537.360950
21
175.098950
0
LINE
8
0
10
537.360950
20
175.098950
11
535.420308
21
175.352130
0
LINE
8
0
10
535.420308
20
175.352130
11
533.581425
21
176.111671
0
LINE
8
0
10
533.581425
20
176.111671
11
532.004202
21
177.324420
0
LINE
8
0
10
532.004202
20
177.324420
11
530.814621
21
178.878475
0
LINE
8
0
10
530.814621
20
178.878475
11
530.063560
21
180.685710
0
LINE
8
0
10
530.063560
20
180.685710
11
529.801900
21
182.658000
0
LINE
8
0
10
529.801900
20
182.658000
11
530.063560
21
184.630290
0
LINE
8
0
10
530.063560
20
184.630290
11
530.814621
21
186.437525
0
LINE
8
0
10
530.814621
20
186.437525
11
532.004202
21
187.991580
0
LINE
8
0
10
532.004202
20
187.991580
11
533.581425
21
189.204329
0
LINE
8
0
10
533.581425
20
189.204329
11
535.420308
21
189.963870
0
LINE
8
0
10
535.420308
20
189.963870
11
537.360950
21
190.217050
0
LINE
8
0
10
537.360950
20
190.217050
11
539.301592
21
189.963870
0
LINE
8
0
10
539.301592
20
189.963870
11
541.140475
21
189.204329
0
LINE
8
0
10
541.140475
20
189.204329
11
542.717698
21
187.991580
0
LINE
8
0
10
542.717698
20
187.991580
11
543.907279
21
186.437525
0
LINE
8
0
10
543.907279
20
186.437525
11
544.658340
21
184.630290
0
LINE
8
0
10
544.658340
20
184.630290
11
544.920000
21
182.658000
0
LINE
8
0
10
544.920000
20
182.658000
11
544.920000
21
182.658000
0
LINE
8
0
10
442.873000
20
133.524000
11
442.614004
21
131.549257
0
LINE
8
0
10
442.614004
20
131.549257
11
441.864383
21
129.739276
0
LINE
8
0
10
441.864383
20
129.739276
11
440.675077
21
128.182510
0
LINE
8
0
10
440.675077
20
128.182510
11
439.097029
21
126.967417
0
LINE
8
0
10
439.097029
20
126.967417
11
437.256527
21
126.206337
0
LINE
8
0
10
437.256527
20
126.206337
11
435.313950
21
125.952644
0
LINE
8
0
10
435.313950
20
125.952644
11
433.371373
21
126.206337
0
LINE
8
0
10
433.371373
20
126.206337
11
431.530871
21
126.967417
0
LINE
8
0
10
431.530871
20
126.967417
11
429.952823
21
128.182510
0
LINE
8
0
10
429.952823
20
128.182510
11
428.763517
21
129.739276
0
LINE
8
0
10
428.763517
20
129.739276
11
428.013896
21
131.549257
0
LINE
8
0
10
428.013896
20
131.549257
11
427.754900
21
133.524000
0
LINE
8
0
10
427.754900
20
133.524000
11
428.013896
21
135.498743
0
LINE
8
0
10
428.013896
20
135.498743
11
428.763517
21
137.308724
0
LINE
8
0
10
428.763517
20
137.308724
11
429.952823
21
138.865490
0
LINE
8
0
10
429.952823
20
138.865490
11
431.530871
21
140.080583
0
LINE
8
0
10
431.530871
20
140.080583
11
433.371373
21
140.841663
0
LINE
8
0
10
433.371373
20
140.841663
11
435.313950
21
141.095356
0
LINE
8
0
10
435.313950
20
141.095356
11
437.256527
21
140.841663
0
LINE
8
0
10
437.256527
20
140.841663
11
439.097029
21
140.080583
0
LINE
8
0
10
439.097029
20
140.080583
11
440.675077
21
138.865490
0
LINE
8
0
10
440.675077
20
138.865490
11
441.864383
21
137.308724
0
LINE
8
0
10
441.864383
20
137.308724
11
442.614004
21
135.498743
0
LINE
8
0
10
442.614004
20
135.498743
11
442.873000
21
133.524000
0
LINE
8
0
10
442.873000
20
133.524000
11
442.873000
21
133.524000
0
LINE
8
0
10
442.873000
20
182.658000
11
442.614004
21
180.683257
0
LINE
8
0
10
442.614004
20
180.683257
11
441.864383
21
178.873276
0
LINE
8
0
10
441.864383
20
178.873276
11
440.675077
21
177.316510
0
LINE
8
0
10
440.675077
20
177.316510
11
439.097029
21
176.101417
0
LINE
8
0
10
439.097029
20
176.101417
11
437.256527
21
175.340337
0
LINE
8
0
10
437.256527
20
175.340337
11
435.313950
21
175.086644
0
LINE
8
0
10
435.313950
20
175.086644
11
433.371373
21
175.340337
0
LINE
8
0
10
433.371373
20
175.340337
11
431.530871
21
176.101417
0
LINE
8
0
10
431.530871
20
176.101417
11
429.952823
21
177.316510
0
LINE
8
0
10
429.952823
20
177.316510
11
428.763517
21
178.873276
0
LINE
8
0
10
428.763517
20
178.873276
11
428.013896
21
180.683257
0
LINE
8
0
10
428.013896
20
180.683257
11
427.754900
21
182.658000
0
LINE
8
0
10
427.754900
20
182.658000
11
428.013896
21
184.632743
0
LINE
8
0
10
428.013896
20
184.632743
11
428.763517
21
186.442724
0
LINE
8
0
10
428.763517
20
186.442724
11
429.952823
21
187.999490
0
LINE
8
0
10
429.952823
20
187.999490
11
431.530871
21
189.214583
0
LINE
8
0
10
431.530871
20
189.214583
11
433.371373
21
189.975663
0
LINE
8
0
10
433.371373
20
189.975663
11
435.313950
21
190.229356
0
LINE
8
0
10
435.313950
20
190.229356
11
437.256527
21
189.975663
0
LINE
8
0
10
437.256527
20
189.975663
11
439.097029
21
189.214583
0
LINE
8
0
10
439.097029
20
189.214583
11
440.675077
21
187.999490
0
LINE
8
0
10
440.675077
20
187.999490
11
441.864383
21
186.442724
0
LINE
8
0
10
441.864383
20
186.442724
11
442.614004
21
184.632743
0
LINE
8
0
10
442.614004
20
184.632743
11
442.873000
21
182.658000
0
LINE
8
0
10
442.873000
20
182.658000
11
442.873000
21
182.658000
0
LINE
8
0
10
554.368000
20
116.516000
11
418.305000
21
116.516000
0
LINE
8
0
10
418.305000
20
116.516000
11
418.305000
21
199.665600
0
LINE
8
0
10
418.305000
20
199.665600
11
554.368000
21
199.665600
0
LINE
8
0
10
554.368000
20
199.665600
11
554.368000
21
116.516000
0
LINE
8
0
10
544.920000
20
216.674000
11
544.658340
21
214.701710
0
LINE
8
0
10
544.658340
20
214.701710
11
543.907279
21
212.894475
0
LINE
8
0
10
543.907279
20
212.894475
11
542.717698
21
211.340420
0
LINE
8
0
10
542.717698
20
211.340420
11
541.140475
21
210.127671
0
LINE
8
0
10
541.140475
20
210.127671
11
539.301592
21
209.368130
0
LINE
8
0
10
539.301592
20
209.368130
11
537.360950
21
209.114950
0
LINE
8
0
10
537.360950
20
209.114950
11
535.420308
21
209.368130
0
LINE
8
0
10
535.420308
20
209.368130
11
533.581425
21
210.127671
0
LINE
8
0
10
533.581425
20
210.127671
11
532.004202
21
211.340420
0
LINE
8
0
10
532.004202
20
211.340420
11
530.814621
21
212.894475
0
LINE
8
0
10
530.814621
20
212.894475
11
530.063560
21
214.701710
0
LINE
8
0
10
530.063560
20
214.701710
11
529.801900
21
216.674000
0
LINE
8
0
10
529.801900
20
216.674000
11
530.063560
21
218.646290
0
LINE
8
0
10
530.063560
20
218.646290
11
530.814621
21
220.453525
0
LINE
8
0
10
530.814621
20
220.453525
11
532.004202
21
222.007580
0
LINE
8
0
10
532.004202
20
222.007580
11
533.581425
21
223.220329
0
LINE
8
0
10
533.581425
20
223.220329
11
535.420308
21
223.979870
0
LINE
8
0
10
535.420308
20
223.979870
11
537.360950
21
224.233050
0
LINE
8
0
10
537.360950
20
224.233050
11
539.301592
21
223.979870
0
LINE
8
0
10
539.301592
20
223.979870
11
541.140475
21
223.220329
0
LINE
8
0
10
541.140475
20
223.220329
11
542.717698
21
222.007580
0
LINE
8
0
10
542.717698
20
222.007580
11
543.907279
21
220.453525
0
LINE
8
0
10
543.907279
20
220.453525
11
544.658340
21
218.646290
0
LINE
8
0
10
544.658340
20
218.646290
11
544.920000
21
216.674000
0
LINE
8
0
10
544.920000
20
216.674000
11
544.920000
21
216.674000
0
LINE
8
0
10
544.920000
20
265.807000
11
544.658340
21
263.834710
0
LINE
8
0
10
544.658340
20
263.834710
11
543.907279
21
262.027475
0
LINE
8
0
10
543.907279
20
262.027475
11
542.717698
21
260.473420
0
LINE
8
0
10
542.717698
20
260.473420
11
541.140475
21
259.260671
0
LINE
8
0
10
541.140475
20
259.260671
11
539.301592
21
258.501130
0
LINE
8
0
10
539.301592
20
258.501130
11
537.360950
21
258.247950
0
LINE
8
0
10
537.360950
20
258.247950
11
535.420308
21
258.501130
0
LINE
8
0
10
535.420308
20
258.501130
11
533.581425
21
259.260671
0
LINE
8
0
10
533.581425
20
259.260671
11
532.004202
21
260.473420
0
LINE
8
0
10
532.004202
20
260.473420
11
530.814621
21
262.027475
0
LINE
8
0
10
530.814621
20
262.027475
11
530.063560
21
263.834710
0
LINE
8
0
10
530.063560
20
263.834710
11
529.801900
21
265.807000
0
LINE
8
0
10
529.801900
20
265.807000
11
530.063560
21
267.779290
0
LINE
8
0
10
530.063560
20
267.779290
11
530.814621
21
269.586525
0
LINE
8
0
10
530.814621
20
269.586525
11
532.004202
21
271.140580
0
LINE
8
0
10
532.004202
20
271.140580
11
533.581425
21
272.353329
0
LINE
8
0
10
533.581425
20
272.353329
11
535.420308
21
273.112870
0
LINE
8
0
10
535.420308
20
273.112870
11
537.360950
21
273.366050
0
LINE
8
0
10
537.360950
20
273.366050
11
539.301592
21
273.112870
0
LINE
8
0
10
539.301592
20
273.112870
11
541.140475
21
272.353329
0
LINE
8
0
10
541.140475
20
272.353329
11
542.717698
21
271.140580
0
LINE
8
0
10
542.717698
20
271.140580
11
543.907279
21
269.586525
0
LINE
8
0
10
543.907279
20
269.586525
11
544.658340
21
267.779290
0
LINE
8
0
10
544.658340
20
267.779290
11
544.920000
21
265.807000
0
LINE
8
0
10
544.920000
20
265.807000
11
544.920000
21
265.807000
0
LINE
8
0
10
442.873000
20
216.674000
11
442.614004
21
214.699257
0
LINE
8
0
10
442.614004
20
214.699257
11
441.864383
21
212.889276
0
LINE
8
0
10
441.864383
20
212.889276
11
440.675077
21
211.332510
0
LINE
8
0
10
440.675077
20
211.332510
11
439.097029
21
210.117417
0
LINE
8
0
10
439.097029
20
210.117417
11
437.256527
21
209.356337
0
LINE
8
0
10
437.256527
20
209.356337
11
435.313950
21
209.102644
0
LINE
8
0
10
435.313950
20
209.102644
11
433.371373
21
209.356337
0
LINE
8
0
10
433.371373
20
209.356337
11
431.530871
21
210.117417
0
LINE
8
0
10
431.530871
20
210.117417
11
429.952823
21
211.332510
0
LINE
8
0
10
429.952823
20
211.332510
11
428.763517
21
212.889276
0
LINE
8
0
10
428.763517
20
212.889276
11
428.013896
21
214.699257
0
LINE
8
0
10
428.013896
20
214.699257
11
427.754900
21
216.674000
0
LINE
8
0
10
427.754900
20
216.674000
11
428.013896
21
218.648743
0
LINE
8
0
10
428.013896
20
218.648743
11
428.763517
21
220.458724
0
LINE
8
0
10
428.763517
20
220.458724
11
429.952823
21
222.015490
0
LINE
8
0
10
429.952823
20
222.015490
11
431.530871
21
223.230583
0
LINE
8
0
10
431.530871
20
223.230583
11
433.371373
21
223.991663
0
LINE
8
0
10
433.371373
20
223.991663
11
435.313950
21
224.245356
0
LINE
8
0
10
435.313950
20
224.245356
11
437.256527
21
223.991663
0
LINE
8
0
10
437.256527
20
223.991663
11
439.097029
21
223.230583
0
LINE
8
0
10
439.097029
20
223.230583
11
440.675077
21
222.015490
0
LINE
8
0
10
440.675077
20
222.015490
11
441.864383
21
220.458724
0
LINE
8
0
10
441.864383
20
220.458724
11
442.614004
21
218.648743
0
LINE
8
0
10
442.614004
20
218.648743
11
442.873000
21
216.674000
0
LINE
8
0
10
442.873000
20
216.674000
11
442.873000
21
216.674000
0
LINE
8
0
10
442.873000
20
265.807000
11
442.614004
21
263.832257
0
LINE
8
0
10
442.614004
20
263.832257
11
441.864383
21
262.022276
0
LINE
8
0
10
441.864383
20
262.022276
11
440.675077
21
260.465510
0
LINE
8
0
10
440.675077
20
260.465510
11
439.097029
21
259.250417
0
LINE
8
0
10
439.097029
20
259.250417
11
437.256527
21
258.489337
0
LINE
8
0
10
437.256527
20
258.489337
11
435.313950
21
258.235644
0
LINE
8
0
10
435.313950
20
258.235644
11
433.371373
21
258.489337
0
LINE
8
0
10
433.371373
20
258.489337
11
431.530871
21
259.250417
0
LINE
8
0
10
431.530871
20
259.250417
11
429.952823
21
260.465510
0
LINE
8
0
10
429.952823
20
260.465510
11
428.763517
21
262.022276
0
LINE
8
0
10
428.763517
20
262.022276
11
428.013896
21
263.832257
0
LINE
8
0
10
428.013896
20
263.832257
11
427.754900
21
265.807000
0
LINE
8
0
10
427.754900
20
265.807000
11
428.013896
21
267.781743
0
LINE
8
0
10
428.013896
20
267.781743
11
428.763517
21
269.591724
0
LINE
8
0
10
428.763517
20
269.591724
11
429.952823
21
271.148490
0
LINE
8
0
10
429.952823
20
271.148490
11
431.530871
21
272.363583
0
LINE
8
0
10
431.530871
20
272.363583
11
433.371373
21
273.124663
0
LINE
8
0
10
433.371373
20
273.124663
11
435.313950
21
273.378356
0
LINE
8
0
10
435.313950
20
273.378356
11
437.256527
21
273.124663
0
LINE
8
0
10
437.256527
20
273.124663
11
439.097029
21
272.363583
0
LINE
8
0
10
439.097029
20
272.363583
11
440.675077
21
271.148490
0
LINE
8
0
10
440.675077
20
271.148490
11
441.864383
21
269.591724
0
LINE
8
0
10
441.864383
20
269.591724
11
442.614004
21
267.781743
0
LINE
8
0
10
442.614004
20
267.781743
11
442.873000
21
265.807000
0
LINE
8
0
10
442.873000
20
265.807000
11
442.873000
21
265.807000
0
LINE
8
0
10
554.368000
20
199.665000
11
418.305000
21
199.665000
0
LINE
8
0
10
418.305000
20
199.665000
11
418.305000
21
282.814600
0
LINE
8
0
10
418.305000
20
282.814600
11
554.368000
21
282.814600
0
LINE
8
0
10
554.368000
20
282.814600
11
554.368000
21
199.665000
0
LINE
8
0
10
544.920000
20
299.823000
11
544.658340
21
297.850710
0
LINE
8
0
10
544.658340
20
297.850710
11
543.907279
21
296.043475
0
LINE
8
0
10
543.907279
20
296.043475
11
542.717698
21
294.489420
0
LINE
8
0
10
542.717698
20
294.489420
11
541.140475
21
293.276671
0
LINE
8
0
10
541.140475
20
293.276671
11
539.301592
21
292.517130
0
LINE
8
0
10
539.301592
20
292.517130
11
537.360950
21
292.263950
0
LINE
8
0
10
537.360950
20
292.263950
11
535.420308
21
292.517130
0
LINE
8
0
10
535.420308
20
292.517130
11
533.581425
21
293.276671
0
LINE
8
0
10
533.581425
20
293.276671
11
532.004202
21
294.489420
0
LINE
8
0
10
532.004202
20
294.489420
11
530.814621
21
296.043475
0
LINE
8
0
10
530.814621
20
296.043475
11
530.063560
21
297.850710
0
LINE
8
0
10
530.063560
20
297.850710
11
529.801900
21
299.823000
0
LINE
8
0
10
529.801900
20
299.823000
11
530.063560
21
301.795290
0
LINE
8
0
10
530.063560
20
301.795290
11
530.814621
21
303.602525
0
LINE
8
0
10
530.814621
20
303.602525
11
532.004202
21
305.156580
0
LINE
8
0
10
532.004202
20
305.156580
11
533.581425
21
306.369329
0
LINE
8
0
10
533.581425
20
306.369329
11
535.420308
21
307.128870
0
LINE
8
0
10
535.420308
20
307.128870
11
537.360950
21
307.382050
0
LINE
8
0
10
537.360950
20
307.382050
11
539.301592
21
307.128870
0
LINE
8
0
10
539.301592
20
307.128870
11
541.140475
21
306.369329
0
LINE
8
0
10
541.140475
20
306.369329
11
542.717698
21
305.156580
0
LINE
8
0
10
542.717698
20
305.156580
11
543.907279
21
303.602525
0
LINE
8
0
10
543.907279
20
303.602525
11
544.658340
21
301.795290
0
LINE
8
0
10
544.658340
20
301.795290
11
544.920000
21
299.823000
0
LINE
8
0
10
544.920000
20
299.823000
11
544.920000
21
299.823000
0
LINE
8
0
10
544.920000
20
348.957000
11
544.658340
21
346.984710
0
LINE
8
0
10
544.658340
20
346.984710
11
543.907279
21
345.177475
0
LINE
8
0
10
543.907279
20
345.177475
11
542.717698
21
343.623420
0
LINE
8
0
10
542.717698
20
343.623420
11
541.140475
21
342.410671
0
LINE
8
0
10
541.140475
20
342.410671
11
539.301592
21
341.651130
0
LINE
8
0
10
539.301592
20
341.651130
11
537.360950
21
341.397950
0
LINE
8
0
10
537.360950
20
341.397950
11
535.420308
21
341.651130
0
LINE
8
0
10
535.420308
20
341.651130
11
533.581425
21
342.410671
0
LINE
8
0
10
533.581425
20
342.410671
11
532.004202
21
343.623420
0
LINE
8
0
10
532.004202
20
343.623420
11
530.814621
21
345.177475
0
LINE
8
0
10
530.814621
20
345.177475
11
530.063560
21
346.984710
0
LINE
8
0
10
530.063560
20
346.984710
11
529.801900
21
348.957000
0
LINE
8
0
10
529.801900
20
348.957000
11
530.063560
21
350.929290
0
LINE
8
0
10
530.063560
20
350.929290
11
530.814621
21
352.736525
0
LINE
8
0
10
530.814621
20
352.736525
11
532.004202
21
354.290580
0
LINE
8
0
10
532.004202
20
354.290580
11
533.581425
21
355.503329
0
LINE
8
0
10
533.581425
20
355.503329
11
535.420308
21
356.262870
0
LINE
8
0
10
535.420308
20
356.262870
11
537.360950
21
356.516050
0
LINE
8
0
10
537.360950
20
356.516050
11
539.301592
21
356.262870
0
LINE
8
0
10
539.301592
20
356.262870
11
541.140475
21
355.503329
0
LINE
8
0
10
541.140475
20
355.503329
11
542.717698
21
354.290580
0
LINE
8
0
10
542.717698
20
354.290580
11
543.907279
21
352.736525
0
LINE
8
0
10
543.907279
20
352.736525
11
544.658340
21
350.929290
0
LINE
8
0
10
544.658340
20
350.929290
11
544.920000
21
348.957000
0
LINE
8
0
10
544.920000
20
348.957000
11
544.920000
21
348.957000
0
LINE
8
0
10
442.873000
20
299.823000
11
442.614004
21
297.848257
0
LINE
8
0
10
442.614004
20
297.848257
11
441.864383
21
296.038276
0
LINE
8
0
10
441.864383
20
296.038276
11
440.675077
21
294.481510
0
LINE
8
0
10
440.675077
20
294.481510
11
439.097029
21
293.266417
0
LINE
8
0
10
439.097029
20
293.266417
11
437.256527
21
292.505337
0
LINE
8
0
10
437.256527
20
292.505337
11
435.313950
21
292.251644
0
LINE
8
0
10
435.313950
20
292.251644
11
433.371373
21
292.505337
0
LINE
8
0
10
433.371373
20
292.505337
11
431.530871
21
293.266417
0
LINE
8
0
10
431.530871
20
293.266417
11
429.952823
21
294.481510
0
LINE
8
0
10
429.952823
20
294.481510
11
428.763517
21
296.038276
0
LINE
8
0
10
428.763517
20
296.038276
11
428.013896
21
297.848257
0
LINE
8
0
10
428.013896
20
297.848257
11
427.754900
21
299.823000
0
LINE
8
0
10
427.754900
20
299.823000
11
428.013896
21
301.797743
0
LINE
8
0
10
428.013896
20
301.797743
11
428.763517
21
303.607724
0
LINE
8
0
10
428.763517
20
303.607724
11
429.952823
21
305.164490
0
LINE
8
0
10
429.952823
20
305.164490
11
431.530871
21
306.379583
0
LINE
8
0
10
431.530871
20
306.379583
11
433.371373
21
307.140663
0
LINE
8
0
10
433.371373
20
307.140663
11
435.313950
21
307.394356
0
LINE
8
0
10
435.313950
20
307.394356
11
437.256527
21
307.140663
0
LINE
8
0
10
437.256527
20
307.140663
11
439.097029
21
306.379583
0
LINE
8
0
10
439.097029
20
306.379583
11
440.675077
21
305.164490
0
LINE
8
0
10
440.675077
20
305.164490
11
441.864383
21
303.607724
0
LINE
8
0
10
441.864383
20
303.607724
11
442.614004
21
301.797743
0
LINE
8
0
10
442.614004
20
301.797743
11
442.873000
21
299.823000
0
LINE
8
0
10
442.873000
20
299.823000
11
442.873000
21
299.823000
0
LINE
8
0
10
442.873000
20
348.957000
11
442.614004
21
346.982257
0
LINE
8
0
10
442.614004
20
346.982257
11
441.864383
21
345.172276
0
LINE
8
0
10
441.864383
20
345.172276
11
440.675077
21
343.615510
0
LINE
8
0
10
440.675077
20
343.615510
11
439.097029
21
342.400417
0
LINE
8
0
10
439.097029
20
342.400417
11
437.256527
21
341.639337
0
LINE
8
0
10
437.256527
20
341.639337
11
435.313950
21
341.385644
0
LINE
8
0
10
435.313950
20
341.385644
11
433.371373
21
341.639337
0
LINE
8
0
10
433.371373
20
341.639337
11
431.530871
21
342.400417
0
LINE
8
0
10
431.530871
20
342.400417
11
429.952823
21
343.615510
0
LINE
8
0
10
429.952823
20
343.615510
11
428.763517
21
345.172276
0
LINE
8
0
10
428.763517
20
345.172276
11
428.013896
21
346.982257
0
LINE
8
0
10
428.013896
20
346.982257
11
427.754900
21
348.957000
0
LINE
8
0
10
427.754900
20
348.957000
11
428.013896
21
350.931743
0
LINE
8
0
10
428.013896
20
350.931743
11
428.763517
21
352.741724
0
LINE
8
0
10
428.763517
20
352.741724
11
429.952823
21
354.298490
0
LINE
8
0
10
429.952823
20
354.298490
11
431.530871
21
355.513583
0
LINE
8
0
10
431.530871
20
355.513583
11
433.371373
21
356.274663
0
LINE
8
0
10
433.371373
20
356.274663
11
435.313950
21
356.528356
0
LINE
8
0
10
435.313950
20
356.528356
11
437.256527
21
356.274663
0
LINE
8
0
10
437.256527
20
356.274663
11
439.097029
21
355.513583
0
LINE
8
0
10
439.097029
20
355.513583
11
440.675077
21
354.298490
0
LINE
8
0
10
440.675077
20
354.298490
11
441.864383
21
352.741724
0
LINE
8
0
10
441.864383
20
352.741724
11
442.614004
21
350.931743
0
LINE
8
0
10
442.614004
20
350.931743
11
442.873000
21
348.957000
0
LINE
8
0
10
442.873000
20
348.957000
11
442.873000
21
348.957000
0
LINE
8
0
10
554.368000
20
282.815000
11
418.305000
21
282.815000
0
LINE
8
0
10
418.305000
20
282.815000
11
418.305000
21
365.964600
0
LINE
8
0
10
418.305000
20
365.964600
11
554.368000
21
365.964600
0
LINE
8
0
10
554.368000
20
365.964600
11
554.368000
21
282.815000
0
LINE
8
0
10
544.920000
20
382.973000
11
544.658340
21
381.000710
0
LINE
8
0
10
544.658340
20
381.000710
11
543.907279
21
379.193475
0
LINE
8
0
10
543.907279
20
379.193475
11
542.717698
21
377.639420
0
LINE
8
0
10
542.717698
20
377.639420
11
541.140475
21
376.426671
0
LINE
8
0
10
541.140475
20
376.426671
11
539.301592
21
375.667130
0
LINE
8
0
10
539.301592
20
375.667130
11
537.360950
21
375.413950
0
LINE
8
0
10
537.360950
20
375.413950
11
535.420308
21
375.667130
0
LINE
8
0
10
535.420308
20
375.667130
11
533.581425
21
376.426671
0
LINE
8
0
10
533.581425
20
376.426671
11
532.004202
21
377.639420
0
LINE
8
0
10
532.004202
20
377.639420
11
530.814621
21
379.193475
0
LINE
8
0
10
530.814621
20
379.193475
11
530.063560
21
381.000710
0
LINE
8
0
10
530.063560
20
381.000710
11
529.801900
21
382.973000
0
LINE
8
0
10
529.801900
20
382.973000
11
530.063560
21
384.945290
0
LINE
8
0
10
530.063560
20
384.945290
11
530.814621
21
386.752525
0
LINE
8
0
10
530.814621
20
386.752525
11
532.004202
21
388.306580
0
LINE
8
0
10
532.004202
20
388.306580
11
533.581425
21
389.519329
0
LINE
8
0
10
533.581425
20
389.519329
11
535.420308
21
390.278870
0
LINE
8
0
10
535.420308
20
390.278870
11
537.360950
21
390.532050
0
LINE
8
0
10
537.360950
20
390.532050
11
539.301592
21
390.278870
0
LINE
8
0
10
539.301592
20
390.278870
11
541.140475
21
389.519329
0
LINE
8
0
10
541.140475
20
389.519329
11
542.717698
21
388.306580
0
LINE
8
0
10
542.717698
20
388.306580
11
543.907279
21
386.752525
0
LINE
8
0
10
543.907279
20
386.752525
11
544.658340
21
384.945290
0
LINE
8
0
10
544.658340
20
384.945290
11
544.920000
21
382.973000
0
LINE
8
0
10
544.920000
20
382.973000
11
544.920000
21
382.973000
0
LINE
8
0
10
544.920000
20
432.107000
11
544.658340
21
430.134710
0
LINE
8
0
10
544.658340
20
430.134710
11
543.907279
21
428.327475
0
LINE
8
0
10
543.907279
20
428.327475
11
542.717698
21
426.773420
0
LINE
8
0
10
542.717698
20
426.773420
11
541.140475
21
425.560671
0
LINE
8
0
10
541.140475
20
425.560671
11
539.301592
21
424.801130
0
LINE
8
0
10
539.301592
20
424.801130
11
537.360950
21
424.547950
0
LINE
8
0
10
537.360950
20
424.547950
11
535.420308
21
424.801130
0
LINE
8
0
10
535.420308
20
424.801130
11
533.581425
21
425.560671
0
LINE
8
0
10
533.581425
20
425.560671
11
532.004202
21
426.773420
0
LINE
8
0
10
532.004202
20
426.773420
11
530.814621
21
428.327475
0
LINE
8
0
10
530.814621
20
428.327475
11
530.063560
21
430.134710
0
LINE
8
0
10
530.063560
20
430.134710
11
529.801900
21
432.107000
0
LINE
8
0
10
529.801900
20
432.107000
11
530.063560
21
434.079290
0
LINE
8
0
10
530.063560
20
434.079290
11
530.814621
21
435.886525
0
LINE
8
0
10
530.814621
20
435.886525
11
532.004202
21
437.440580
0
LINE
8
0
10
532.004202
20
437.440580
11
533.581425
21
438.653329
0
LINE
8
0
10
533.581425
20
438.653329
11
535.420308
21
439.412870
0
LINE
8
0
10
535.420308
20
439.412870
11
537.360950
21
439.666050
0
LINE
8
0
10
537.360950
20
439.666050
11
539.301592
21
439.412870
0
LINE
8
0
10
539.301592
20
439.412870
11
541.140475
21
438.653329
0
LINE
8
0
10
541.140475
20
438.653329
11
542.717698
21
437.440580
0
LINE
8
0
10
542.717698
20
437.440580
11
543.907279
21
435.886525
0
LINE
8
0
10
543.907279
20
435.886525
11
544.658340
21
434.079290
0
LINE
8
0
10
544.658340
20
434.079290
11
544.920000
21
432.107000
0
LINE
8
0
10
544.920000
20
432.107000
11
544.920000
21
432.107000
0
LINE
8
0
10
442.873000
20
382.973000
11
442.614004
21
380.998257
0
LINE
8
0
10
442.614004
20
380.998257
11
441.864383
21
379.188276
0
LINE
8
0
10
441.864383
20
379.188276
11
440.675077
21
377.631510
0
LINE
8
0
10
440.675077
20
377.631510
11
439.097029
21
376.416417
0
LINE
8
0
10
439.097029
20
376.416417
11
437.256527
21
375.655337
0
LINE
8
0
10
437.256527
20
375.655337
11
435.313950
21
375.401644
0
LINE
8
0
10
435.313950
20
375.401644
11
433.371373
21
375.655337
0
LINE
8
0
10
433.371373
20
375.655337
11
431.530871
21
376.416417
0
LINE
8
0
10
431.530871
20
376.416417
11
429.952823
21
377.631510
0
LINE
8
0
10
429.952823
20
377.631510
11
428.763517
21
379.188276
0
LINE
8
0
10
428.763517
20
379.188276
11
428.013896
21
380.998257
0
LINE
8
0
10
428.013896
20
380.998257
11
427.754900
21
382.973000
0
LINE
8
0
10
427.754900
20
382.973000
11
428.013896
21
384.947743
0
LINE
8
0
10
428.013896
20
384.947743
11
428.763517
21
386.757724
0
LINE
8
0
10
428.763517
20
386.757724
11
429.952823
21
388.314490
0
LINE
8
0
10
429.952823
20
388.314490
11
431.530871
21
389.529583
0
LINE
8
0
10
431.530871
20
389.529583
11
433.371373
21
390.290663
0
LINE
8
0
10
433.371373
20
390.290663
11
435.313950
21
390.544356
0
LINE
8
0
10
435.313950
20
390.544356
11
437.256527
21
390.290663
0
LINE
8
0
10
437.256527
20
390.290663
11
439.097029
21
389.529583
0
LINE
8
0
10
439.097029
20
389.529583
11
440.675077
21
388.314490
0
LINE
8
0
10
440.675077
20
388.314490
11
441.864383
21
386.757724
0
LINE
8
0
10
441.864383
20
386.757724
11
442.614004
21
384.947743
0
LINE
8
0
10
442.614004
20
384.947743
11
442.873000
21
382.973000
0
LINE
8
0
10
442.873000
20
382.973000
11
442.873000
21
382.973000
0
LINE
8
0
10
442.873000
20
432.107000
11
442.614004
21
430.132257
0
LINE
8
0
10
442.614004
20
430.132257
11
441.864383
21
428.322276
0
LINE
8
0
10
441.864383
20
428.322276
11
440.675077
21
426.765510
0
LINE
8
0
10
440.675077
20
426.765510
11
439.097029
21
425.550417
0
LINE
8
0
10
439.097029
20
425.550417
11
437.256527
21
424.789337
0
LINE
8
0
10
437.256527
20
424.789337
11
435.313950
21
424.535644
0
LINE
8
0
10
435.313950
20
424.535644
11
433.371373
21
424.789337
0
LINE
8
0
10
433.371373
20
424.789337
11
431.530871
21
425.550417
0
LINE
8
0
10
431.530871
20
425.550417
11
429.952823
21
426.765510
0
LINE
8
0
10
429.952823
20
426.765510
11
428.763517
21
428.322276
0
LINE
8
0
10
428.763517
20
428.322276
11
428.013896
21
430.132257
0
LINE
8
0
10
428.013896
20
430.132257
11
427.754900
21
432.107000
0
LINE
8
0
10
427.754900
20
432.107000
11
428.013896
21
434.081743
0
LINE
8
0
10
428.013896
20
434.081743
11
428.763517
21
435.891724
0
LINE
8
0
10
428.763517
20
435.891724
11
429.952823
21
437.448490
0
LINE
8
0
10
429.952823
20
437.448490
11
431.530871
21
438.663583
0
LINE
8
0
10
431.530871
20
438.663583
11
433.371373
21
439.424663
0
LINE
8
0
10
433.371373
20
439.424663
11
435.313950
21
439.678356
0
LINE
8
0
10
435.313950
20
439.678356
11
437.256527
21
439.424663
0
LINE
8
0
10
437.256527
20
439.424663
11
439.097029
21
438.663583
0
LINE
8
0
10
439.097029
20
438.663583
11
440.675077
21
437.448490
0
LINE
8
0
10
440.675077
20
437.448490
11
441.864383
21
435.891724
0
LINE
8
0
10
441.864383
20
435.891724
11
442.614004
21
434.081743
0
LINE
8
0
10
442.614004
20
434.081743
11
442.873000
21
432.107000
0
LINE
8
0
10
442.873000
20
432.107000
11
442.873000
21
432.107000
0
LINE
8
0
10
554.368000
20
365.964000
11
418.305000
21
365.964000
0
LINE
8
0
10
418.305000
20
365.964000
11
418.305000
21
449.113600
0
LINE
8
0
10
418.305000
20
449.113600
11
554.368000
21
449.113600
0
LINE
8
0
10
554.368000
20
449.113600
11
554.368000
21
365.964000
 0 
ENDSEC
 0 
EOF